<svg width="21" height="22" viewBox="0 0 21 22" fill="none" xmlns="http://www.w3.org/2000/svg">
<path d="M0 5.11898C0.036783 4.89132 0.0617509 4.66074 0.111464 4.43623C0.418658 3.08396 1.58836 1.97574 2.94978 1.75122C3.18413 1.71233 3.42118 1.69228 3.65869 1.69128C5.73533 1.68679 7.81205 1.68589 9.88884 1.68858H10.0317V3.10304H9.88929C7.79377 3.10304 5.69825 3.10304 3.60273 3.10304C2.55899 3.10304 1.68556 3.80758 1.46129 4.83385C1.42651 4.99841 1.40939 5.16627 1.41024 5.33452C1.40756 9.67519 1.40704 14.0154 1.40868 18.3552C1.40868 19.4603 2.12985 20.3413 3.20325 20.5505C3.34204 20.5757 3.48289 20.5876 3.62391 20.586C7.93711 20.5878 12.2503 20.5878 16.5635 20.586C17.8079 20.586 18.7678 19.6206 18.7689 18.3687C18.7707 16.3818 18.7707 14.3951 18.7689 12.4084C18.7689 12.3635 18.7689 12.3186 18.7689 12.2674H20.1734C20.1734 12.3123 20.1734 12.3516 20.1734 12.3916C20.1734 14.3784 20.1734 16.3651 20.1734 18.3518C20.1723 20.1015 19.0266 21.5411 17.3328 21.9216C17.1817 21.9555 17.0274 21.9744 16.8745 22H3.32162C3.23044 21.9859 3.13949 21.9706 3.04809 21.9578C1.63963 21.7609 0.429136 20.6468 0.111464 19.2494C0.0604134 19.0249 0.0365601 18.795 0 18.5676C0 14.0847 0 9.60185 0 5.11898Z" fill="#707070"/>
<path d="M20.9998 3.39021C20.9746 3.53682 20.9574 3.68523 20.9231 3.82959C20.8277 4.24375 20.6207 4.6234 20.325 4.92681C20.0106 5.25079 19.691 5.56803 19.3724 5.88909C16.62 8.66173 13.8668 11.4338 11.1127 14.2052C11.0527 14.265 10.9809 14.3115 10.9021 14.3417C8.73416 15.1557 6.56544 15.9677 4.39591 16.7777C4.35891 16.7914 4.32168 16.8045 4.26773 16.8238C4.28356 16.7721 4.29247 16.7375 4.30496 16.7043C5.12875 14.5106 5.95358 12.3172 6.77945 10.1239C6.80067 10.0688 6.83292 10.0187 6.8742 9.97666C9.93039 6.89613 12.9873 3.81627 16.045 0.737091C16.4476 0.331388 16.926 0.0846431 17.494 0.0186349C17.5115 0.014378 17.5284 0.00812573 17.5444 0H17.9903C18.0063 0.00821547 18.0233 0.0144713 18.0409 0.0186349C18.6078 0.0846431 19.0859 0.330714 19.487 0.737091C19.746 0.999028 20.0055 1.26044 20.2655 1.52133C20.5898 1.84823 20.8143 2.23327 20.9209 2.68366C20.9565 2.83498 20.9741 2.99057 21 3.14414L20.9998 3.39021ZM11.4195 12.1269L17.7172 5.78424L15.2349 3.28716L8.93628 9.6318L11.4195 12.1269ZM8.05527 10.469C7.97858 10.5644 7.87002 10.6486 7.82766 10.7609C7.32942 12.06 6.84098 13.3628 6.35032 14.6648C6.34132 14.6943 6.33388 14.7243 6.32803 14.7546C6.37863 14.7362 6.41363 14.7239 6.44818 14.7097C7.69903 14.2411 8.94876 13.7699 10.2016 13.3071C10.3679 13.2456 10.4829 13.1388 10.5806 13.0238L8.05527 10.469ZM18.6124 4.92344C18.9005 4.63831 19.205 4.35766 19.4857 4.05434C19.6878 3.8377 19.8016 3.55228 19.8041 3.25497C19.8067 2.95766 19.6979 2.6703 19.4995 2.45016C19.1972 2.11653 18.8782 1.79614 18.5476 1.49102C18.1082 1.08689 17.4062 1.10261 16.9721 1.51347C16.6801 1.79008 16.4023 2.08217 16.1186 2.36664C16.1104 2.37551 16.1029 2.38504 16.0963 2.39515L18.6124 4.92344Z" fill="#707070"/>
</svg>
