<svg width="21" height="20" viewBox="0 0 21 20" fill="none" xmlns="http://www.w3.org/2000/svg">
<path d="M13.4888 10.0009C13.4888 13.0607 13.4888 16.1205 13.4888 19.1804C13.4888 19.5191 13.3596 19.7744 13.0605 19.9191C12.7672 20.0622 12.4919 20.0111 12.2418 19.7998C12.115 19.6926 11.9849 19.5894 11.8567 19.4841L6.57415 15.1466C6.07487 14.7362 5.57693 14.3258 5.07472 13.9186C5.01699 13.8729 4.94686 13.8467 4.874 13.8436C3.76349 13.839 2.65272 13.8417 1.54194 13.8401C0.667611 13.8401 0.00972961 13.1809 0.00546457 12.284C-0.00182152 10.7656 -0.00182152 9.24708 0.00546457 7.72848C0.00972961 6.81787 0.668144 6.15625 1.55607 6.15434C2.65325 6.15197 3.75052 6.15197 4.84788 6.15434C4.94012 6.15726 5.03015 6.12499 5.10058 6.06377C7.2841 4.26845 9.46869 2.47467 11.6543 0.682452C11.8695 0.505967 12.0808 0.323187 12.3013 0.155457C12.7366 -0.172888 13.3302 0.0427254 13.4648 0.578476C13.4888 0.673423 13.487 0.776852 13.487 0.87645C13.488 3.91803 13.488 6.9596 13.487 10.0012L13.4888 10.0009ZM11.9851 17.63V2.36659C11.7212 2.58549 11.4763 2.78715 11.2302 2.98908C9.51551 4.3986 7.79963 5.80757 6.0826 7.21599C6.05249 7.23779 6.02831 7.26714 6.01235 7.30124C5.9964 7.33533 5.9892 7.37305 5.99144 7.41081C5.99428 9.13408 5.99428 10.8573 5.99144 12.5803C5.98893 12.6203 5.99634 12.6602 6.01299 12.6964C6.02963 12.7326 6.05496 12.7638 6.0866 12.7872C7.831 14.2182 9.57451 15.6502 11.3171 17.0831C11.5349 17.2623 11.7527 17.4401 11.9851 17.63ZM4.49468 7.68169H4.33767C3.44495 7.68169 2.55169 7.68552 1.65923 7.67923C1.52275 7.67923 1.48916 7.71699 1.4897 7.85462C1.49449 9.29086 1.49263 10.7276 1.49263 12.1633C1.49263 12.2074 1.49263 12.2514 1.49263 12.3029H4.49441L4.49468 7.68169Z" fill="#696969"/>
<path d="M18.0002 9.23423C18.7508 9.23423 19.5017 9.23258 20.2524 9.23423C20.4182 9.23292 20.5797 9.28886 20.7108 9.39306C20.842 9.49727 20.9352 9.6437 20.9756 9.80883C21.0609 10.1509 20.9191 10.503 20.6096 10.6653C20.4956 10.7258 20.3697 10.759 20.2414 10.7624C18.7444 10.769 17.2473 10.7701 15.7501 10.7657C15.3236 10.7657 14.9872 10.4223 14.9885 9.99954C14.9885 9.56503 15.3217 9.2334 15.7616 9.2334C16.5076 9.23286 17.2538 9.23313 18.0002 9.23423Z" fill="#696969"/>
<path d="M19.5127 16.083C19.5151 16.7397 18.947 17.1028 18.4464 16.8518C17.9242 16.5905 17.4068 16.3196 16.8873 16.0529C16.3875 15.7965 15.8863 15.5428 15.3884 15.2826C15.1023 15.1332 14.9661 14.8519 15 14.5096C15.0169 14.3641 15.075 14.2269 15.1672 14.115C15.2595 14.0031 15.3817 13.9215 15.5187 13.8803C15.7035 13.8224 15.903 13.8412 16.0745 13.9326C17.0862 14.4515 18.0976 14.9714 19.1088 15.4922C19.3788 15.6312 19.5073 15.8676 19.5127 16.083Z" fill="#696969"/>
<path d="M14.9757 5.33895C14.9835 5.09269 15.1154 4.85519 15.3913 4.71291C16.3973 4.19449 17.404 3.67752 18.4115 3.16202C18.7913 2.96775 19.2288 3.11113 19.4143 3.48544C19.6086 3.87754 19.4636 4.32491 19.071 4.52794C18.4373 4.85629 17.8021 5.17998 17.1674 5.50559C16.7987 5.69439 16.4298 5.88328 16.0609 6.07226C15.5576 6.32974 14.9773 5.97321 14.9757 5.33895Z" fill="#696969"/>
</svg>
