<svg width="26" height="24" viewBox="0 0 26 24" fill="none" xmlns="http://www.w3.org/2000/svg">
<path d="M8.65559 19.254C8.57564 19.2413 8.49162 19.2316 8.40848 19.2143C8.12978 19.1559 7.87896 19.0339 7.67527 18.8401C7.34662 18.5285 7.02061 18.2127 6.70942 17.8849C6.45896 17.6201 6.33293 17.289 6.29657 16.9219C6.17849 16.9045 6.05952 16.8949 5.94356 16.8697C5.64087 16.8046 5.36612 16.6483 5.15722 16.4224C4.88028 16.1296 4.58021 15.8585 4.30151 15.5672C3.93579 15.1852 3.7997 14.7266 3.87789 14.2066C3.88725 14.1445 3.88036 14.0954 3.82847 14.0443C3.20593 13.4315 2.57333 12.828 1.97002 12.1969C1.03365 11.2165 0.433351 10.0562 0.15394 8.73456C0.0502887 8.25544 -0.00130805 7.76677 2.51886e-05 7.27684C0.0114982 5.61712 0.520545 4.12228 1.557 2.81323C2.50519 1.61572 3.71621 0.781591 5.18811 0.32601C5.68002 0.175171 6.18681 0.0764919 6.69989 0.0316428C7.0892 -0.00506418 7.48091 -0.00984433 7.87102 0.0173514C8.74491 0.0811397 9.60167 0.223008 10.4184 0.554497C11.0767 0.821676 11.6878 1.16815 12.2345 1.61764C12.498 1.83445 12.7405 2.07635 12.9934 2.30693C13.0111 2.32244 13.0275 2.33761 13.07 2.37577C13.1532 2.28253 13.2289 2.1858 13.3172 2.1011C14.0983 1.349 15.007 0.802156 16.0433 0.460558C16.5441 0.293942 17.06 0.192682 17.5828 0.120528C18.1219 0.0465893 18.6676 0.0313933 19.21 0.075214C19.6633 0.112285 20.1123 0.18981 20.5515 0.306839C21.5512 0.570183 22.4578 1.01444 23.2663 1.65197C24.5228 2.64365 25.3511 3.90966 25.7512 5.44999C25.8732 5.92415 25.9508 6.40837 25.983 6.89655C26.0152 7.35988 26.0017 7.8252 25.9427 8.28595C25.8221 9.23213 25.5134 10.1455 25.0344 10.9736C24.7589 11.45 24.43 11.8943 24.0539 12.2982C24.0442 12.3086 24.0363 12.3199 24.0315 12.325C24.3612 12.9125 24.4031 13.5169 24.1551 14.1323C24.092 14.2892 23.9785 14.4342 23.8596 14.559C23.55 14.8852 23.2279 15.2 22.9056 15.5142C22.6547 15.7623 22.3236 15.9157 21.9701 15.9477C21.9383 15.9508 21.9071 15.9585 21.8995 15.9747C21.8375 16.172 21.7936 16.3769 21.708 16.5643C21.6425 16.709 21.5408 16.8447 21.4301 16.961C21.128 17.278 20.8139 17.5844 20.5014 17.8918C20.2802 18.1093 20.0071 18.2279 19.7023 18.2821C19.6707 18.2876 19.6389 18.2937 19.6072 18.2976C19.4522 18.3162 19.4451 18.315 19.4158 18.4694C19.3414 18.8633 19.1431 19.184 18.853 19.4594C18.5393 19.7572 18.2369 20.0667 17.9289 20.3703C17.6818 20.6143 17.3906 20.7771 17.0464 20.8453C17.0322 20.8489 17.019 20.8554 17.0076 20.8644C16.9962 20.8734 16.9868 20.8847 16.98 20.8976C16.9371 21.0021 16.8997 21.1067 16.8628 21.2137C16.7695 21.4814 16.5952 21.6916 16.3939 21.8878C15.8435 22.4243 15.3022 22.9698 14.7506 23.505C14.39 23.855 13.9513 24.0279 13.4432 23.9963C13.0549 23.9716 12.7179 23.813 12.4389 23.5472C12.1467 23.2683 11.8626 22.9829 11.5775 22.6977C11.3025 22.4225 11.1362 22.0944 11.1032 21.7062C11.0978 21.6424 11.0563 21.6496 11.0171 21.6475C10.7733 21.6353 10.5379 21.5816 10.3329 21.4518C10.1866 21.3592 10.0546 21.2412 9.92857 21.1217C9.66769 20.8742 9.41546 20.618 9.15899 20.3658C8.91983 20.1307 8.7585 19.8534 8.69337 19.5252C8.67501 19.4383 8.66813 19.3487 8.65559 19.254ZM16.8187 19.2947C16.8624 19.2627 16.9044 19.2286 16.9446 19.1925C17.2783 18.8649 17.6121 18.5374 17.942 18.2059C17.995 18.1516 18.0369 18.0878 18.0656 18.0178C18.1144 17.8986 18.1062 17.7946 17.9983 17.6898C17.3606 17.0706 16.7305 16.4439 16.098 15.8196C15.6072 15.3349 15.1145 14.852 14.6265 14.3645C14.3794 14.1184 14.3568 13.7602 14.5467 13.4781C14.8214 13.0697 15.4487 13.0737 15.741 13.3648C16.5569 14.177 17.3795 14.9828 18.1993 15.791C18.5074 16.0946 18.8124 16.401 19.1248 16.7001C19.2923 16.8602 19.3675 16.854 19.5316 16.6929C19.7923 16.4371 20.0541 16.1821 20.3093 15.9208C20.3679 15.8563 20.4143 15.7818 20.4463 15.7011C20.4925 15.5932 20.4782 15.5005 20.3806 15.4065C19.5739 14.6304 18.7705 13.8508 17.9704 13.0678C17.6458 12.752 17.3216 12.4357 16.9979 12.119C16.8083 11.9332 16.728 11.7101 16.7959 11.4517C16.9371 10.9149 17.646 10.7218 18.0491 11.1113C18.8964 11.9302 19.7411 12.7511 20.5833 13.5739C20.8598 13.843 21.1315 14.1172 21.4128 14.3807C21.6204 14.5748 21.6564 14.5862 21.8758 14.3774C22.1258 14.1397 22.3722 13.8981 22.6101 13.6489C22.6837 13.5717 22.7352 13.4687 22.7774 13.37C22.8141 13.2839 22.7951 13.2015 22.7141 13.1286C22.5624 12.9915 22.4216 12.8426 22.2772 12.6976C21.137 11.5525 19.9969 10.4072 18.857 9.26177C18.1697 8.57137 17.4827 7.88184 16.7961 7.19318C16.6208 7.01785 16.438 6.85002 16.235 6.65604C16.2228 6.67608 16.2099 6.71146 16.1858 6.73551C15.898 7.02227 15.6093 7.30804 15.3196 7.59282C14.5485 8.35462 13.7743 9.11311 13.0074 9.87891C12.3882 10.4969 11.641 10.7484 10.7807 10.6062C9.86908 10.4554 9.23365 9.91028 8.79856 9.12478C8.6187 8.80009 8.54387 8.4442 8.5181 8.07576C8.46355 7.29444 8.6946 6.61403 9.25413 6.05493C10.0068 5.30324 10.7657 4.55869 11.5237 3.81171C11.6769 3.6606 11.8327 3.51229 11.9884 3.3617C11.574 2.92992 11.0989 2.55915 10.5778 2.26075C9.24989 1.50574 7.83183 1.24902 6.32181 1.53537C5.33884 1.72168 4.46037 2.13178 3.68215 2.75537C3.24723 3.10394 2.85944 3.49399 2.5585 3.96124C2.13632 4.61712 1.85276 5.3505 1.72486 6.11732C1.58153 6.95546 1.60836 7.78802 1.81823 8.61221C2.06869 9.5964 2.53873 10.4675 3.23929 11.2108C3.557 11.5487 3.89572 11.8685 4.22455 12.1966C4.40106 12.3731 4.57757 12.5502 4.75708 12.7288C4.78549 12.7023 4.80509 12.6851 4.82362 12.6668C5.26701 12.23 5.70774 11.7906 6.15448 11.3572C6.35641 11.1611 6.60175 11.0356 6.87569 10.961C7.13869 10.8894 7.40627 10.91 7.67245 10.9117C8.02352 10.914 8.34988 11.0163 8.60794 11.2504C8.95707 11.5663 9.28784 11.9017 9.61844 12.2347C9.76991 12.39 9.8821 12.5784 9.94586 12.7846C9.99299 12.9319 10.0189 13.0858 10.0549 13.2391C10.1051 13.2459 10.16 13.2543 10.215 13.2604C10.5252 13.294 10.8132 13.3927 11.0446 13.6004C11.3336 13.8603 11.607 14.137 11.8825 14.411C11.9779 14.5054 12.0654 14.6072 12.1443 14.7155C12.3008 14.9301 12.3932 15.1837 12.4111 15.4475C12.4152 15.5024 12.4111 15.5571 12.502 15.5641C12.8602 15.5913 13.1682 15.7372 13.4241 15.9841C13.6996 16.2499 13.9701 16.5211 14.2419 16.7907C14.4293 16.9765 14.5718 17.1916 14.6478 17.4432C14.6913 17.5854 14.7172 17.7327 14.7506 17.876C14.8035 17.8829 14.8565 17.8908 14.9082 17.8964C15.2151 17.9293 15.5051 18.0222 15.7309 18.2299C16.101 18.5712 16.4503 18.9321 16.8187 19.2947ZM22.9815 11.2491C23.0482 11.1702 23.1013 11.1085 23.153 11.0456C23.7254 10.352 24.131 9.53926 24.3392 8.6685C24.5109 7.96143 24.5436 7.24617 24.4639 6.5248C24.3912 5.86565 24.2212 5.23509 23.8929 4.65211C23.4623 3.87904 22.8654 3.20844 22.1443 2.6874C21.2723 2.05614 20.3031 1.65911 19.23 1.52195C18.6635 1.45071 18.0896 1.46051 17.526 1.55106C16.7084 1.67946 15.9249 1.96734 15.2211 2.39791C14.8505 2.62326 14.5142 2.89479 14.1942 3.18707C13.8899 3.46505 13.5697 3.72596 13.269 4.00725C12.928 4.32637 12.6002 4.65943 12.2676 4.98726C11.6461 5.60028 11.0251 6.21382 10.4048 6.82788C10.3222 6.90979 10.232 6.98962 10.1707 7.08617C9.98681 7.37583 9.90597 7.69042 9.95204 8.03707C10.0285 8.60942 10.4539 9.10143 11.0187 9.24922C11.0946 9.26909 11.1765 9.29366 11.2515 9.28408C11.4868 9.25393 11.7148 9.18474 11.898 9.03154C12.095 8.86701 12.2798 8.6875 12.4629 8.50747C13.5708 7.41644 14.6821 6.3289 15.7791 5.22708C16.0315 4.97349 16.4915 4.89977 16.7839 5.1422C16.8604 5.20546 16.9382 5.26786 17.0086 5.3374C17.9633 6.27946 18.9173 7.22229 19.8707 8.16587C20.6855 8.97106 21.5003 9.77614 22.3153 10.5811C22.5367 10.8 22.7557 11.0227 22.9815 11.2491ZM5.46875 14.1186C5.45887 14.27 5.5127 14.3938 5.6179 14.4976C5.86943 14.7458 6.11848 14.9964 6.37247 15.242C6.59628 15.4583 6.633 15.4484 6.85398 15.242C7.02502 15.0831 7.18617 14.9137 7.35244 14.7497C7.72452 14.3826 8.10277 14.0213 8.46761 13.6473C8.6886 13.4207 8.68031 13.324 8.47114 13.1114C8.21538 12.8513 7.95168 12.5986 7.69328 12.341C7.60891 12.2569 7.51077 12.223 7.3918 12.2284C7.24883 12.2349 7.1341 12.291 7.03402 12.3902C6.55922 12.8608 6.08441 13.3313 5.60431 13.7982C5.50935 13.8918 5.46152 13.9927 5.46875 14.1186ZM7.781 16.4681C7.78824 16.5978 7.82036 16.7198 7.91161 16.812C8.19532 17.0983 8.48226 17.3814 8.77244 17.6613C8.88717 17.7716 8.95548 17.7679 9.08027 17.6708C9.11696 17.6418 9.15191 17.6107 9.18494 17.5776C9.6448 17.1245 10.1042 16.6708 10.5631 16.2166C10.6789 16.1016 10.7982 15.9874 10.8962 15.8583C10.9975 15.7246 10.9823 15.6469 10.8656 15.5303C10.6035 15.2679 10.3399 15.0069 10.0749 14.7472C9.83343 14.5116 9.57626 14.5166 9.33497 14.7552C8.86352 15.2214 8.39295 15.6887 7.91815 16.1518C7.8253 16.2433 7.79318 16.3494 7.78171 16.4683L7.781 16.4681ZM12.0666 16.9185C12.026 16.9232 11.9852 16.9263 11.9448 16.9327C11.7718 16.961 11.6564 17.0757 11.5388 17.1916C11.0939 17.6337 10.6462 18.0733 10.2014 18.5161C10.1661 18.551 10.1257 18.5977 10.1183 18.6437C10.0895 18.8211 10.1104 18.9888 10.2498 19.1252C10.5045 19.3745 10.755 19.6277 11.01 19.8764C11.2307 20.0915 11.276 20.0931 11.4912 19.8837C12.0375 19.3523 12.5795 18.8164 13.1172 18.2761C13.1827 18.2104 13.2231 18.1193 13.2672 18.0346C13.3025 17.9687 13.2813 17.9134 13.2243 17.8584C12.9595 17.6029 12.6967 17.3453 12.4396 17.0823C12.3351 16.9753 12.2168 16.9178 12.0666 16.9185ZM12.4752 21.1027C12.4874 21.2585 12.5292 21.3756 12.6258 21.4706C12.8905 21.731 13.1512 21.9948 13.4201 22.2514C13.6142 22.4365 13.6638 22.4257 13.838 22.2565C14.3991 21.7141 14.9511 21.1626 15.5051 20.6133C15.5824 20.5366 15.6485 20.4486 15.6541 20.3344C15.6559 20.2996 15.6444 20.2529 15.6209 20.2299C15.3721 19.9789 15.1209 19.7301 14.8674 19.4836C14.6297 19.2535 14.3128 19.2558 14.0768 19.4878C13.558 19.9981 13.0403 20.5093 12.5236 21.0215C12.4971 21.048 12.4844 21.0868 12.4752 21.1029V21.1027Z" fill="#696969"/>
</svg>
