<svg width="18" height="20" viewBox="0 0 18 20" fill="none" xmlns="http://www.w3.org/2000/svg">
<path d="M0.000264454 3.08277V1.5396H0.190547C3.5966 1.5396 7.00265 1.54134 10.4087 1.5448C10.5816 1.5448 10.6596 1.49283 10.7322 1.33611C11.0524 0.643849 11.5838 0.206776 12.3177 0.0475909C13.3475 -0.175869 14.3993 0.405072 14.8164 1.42336C14.8543 1.51608 14.8989 1.54179 14.991 1.54152C15.9381 1.53851 16.8858 1.5396 17.8324 1.5396H17.9989V3.08277H16.98C16.3173 3.08277 15.655 3.08468 14.9923 3.08058C14.8992 3.08058 14.853 3.10793 14.8159 3.19846C14.4484 4.10324 13.5651 4.68391 12.6174 4.61088C11.7215 4.54196 11.0871 4.05866 10.7057 3.22992C10.6553 3.12051 10.6057 3.07921 10.4837 3.07921C7.04206 3.0834 3.60043 3.0845 0.158789 3.08249L0.000264454 3.08277ZM12.7652 1.54234C12.3521 1.53085 12.018 1.85879 12.0044 2.28876C12.0011 2.39135 12.018 2.49356 12.054 2.58936C12.0899 2.68516 12.1443 2.77261 12.2137 2.84654C12.2832 2.92047 12.3664 2.97939 12.4585 3.01982C12.5506 3.06025 12.6496 3.08138 12.7497 3.08194C13.1519 3.08988 13.4898 2.75373 13.5066 2.32568C13.5231 1.9042 13.192 1.55437 12.7652 1.54234Z" fill="#707070"/>
<path d="M0 18.4539V16.9258H0.872151C4.08641 16.9258 7.30076 16.9266 10.5152 16.9283C10.607 16.9283 10.6486 16.9039 10.6876 16.8129C11.1127 15.7929 12.1103 15.2243 13.1719 15.4313C13.9488 15.5829 14.4954 16.0632 14.814 16.8052C14.8549 16.9007 14.8984 16.9297 14.9974 16.9291C15.9533 16.925 16.909 16.9269 17.865 16.9269H18V18.4624H16.5797C16.0419 18.4624 15.5042 18.4624 14.9662 18.4605C14.8938 18.4605 14.8594 18.4799 14.8298 18.5527C14.6946 18.9043 14.4765 19.2162 14.1949 19.4602C13.9132 19.7042 13.5769 19.8727 13.2161 19.9508C12.8553 20.0288 12.4812 20.0139 12.1273 19.9073C11.7735 19.8007 11.451 19.6058 11.1888 19.3401C10.9657 19.1226 10.7925 18.857 10.6817 18.5625C10.655 18.4881 10.6201 18.4591 10.5381 18.4594C9.21799 18.4623 7.89794 18.463 6.57797 18.4613H0.110754C0.0760598 18.4613 0.0413658 18.4575 0 18.4539ZM12.7353 18.4605C12.8333 18.4645 12.931 18.4485 13.0229 18.4135C13.1147 18.3786 13.199 18.3253 13.2707 18.2569C13.3424 18.1884 13.4001 18.106 13.4406 18.0146C13.4811 17.9231 13.5035 17.8243 13.5066 17.7239C13.5102 17.6224 13.4942 17.5212 13.4595 17.4261C13.4248 17.331 13.3721 17.2438 13.3044 17.1697C13.2367 17.0955 13.1554 17.0358 13.0651 16.9939C12.9748 16.9521 12.8773 16.9289 12.7783 16.9258C12.6793 16.9215 12.5805 16.9375 12.4876 16.973C12.3947 17.0084 12.3097 17.0626 12.2376 17.1322C12.1655 17.2018 12.1077 17.2856 12.0676 17.3785C12.0276 17.4713 12.0061 17.5715 12.0044 17.6731C11.9915 18.1071 12.3097 18.4493 12.7353 18.4605Z" fill="#707070"/>
<path d="M7.36258 10.7718C7.12239 11.4008 6.71247 11.8584 6.11306 12.1281C5.03435 12.6139 3.71118 12.0936 3.2308 10.9865C3.15661 10.815 3.07067 10.7636 2.89 10.766C1.97408 10.7778 1.05789 10.7718 0.141175 10.772H0.000264454V9.23598H0.213765C1.14303 9.23598 2.07229 9.23407 3.00155 9.23845C3.10297 9.23845 3.14593 9.20398 3.18383 9.11044C3.35054 8.69385 3.63375 8.3371 3.99782 8.08508C4.36189 7.83307 4.79056 7.69703 5.22989 7.69411C5.66922 7.69119 6.09958 7.8215 6.46681 8.06865C6.83405 8.31581 7.12175 8.66876 7.29372 9.08309C7.34096 9.19605 7.39861 9.24118 7.52671 9.24091C10.9326 9.23635 14.3385 9.23507 17.7446 9.23708H17.996V10.7718H7.36258ZM5.24758 9.23653C5.14742 9.2352 5.04802 9.25463 4.95536 9.29364C4.8627 9.33265 4.77868 9.39044 4.70835 9.46354C4.63802 9.53664 4.58282 9.62356 4.54606 9.71906C4.50931 9.81457 4.49176 9.9167 4.49446 10.0193C4.49846 10.437 4.83713 10.7718 5.25292 10.7718C5.44806 10.7716 5.63533 10.6929 5.77443 10.5526C5.91353 10.4124 5.99335 10.2217 5.99671 10.0218C5.99991 9.57459 5.67725 9.23653 5.24732 9.2368L5.24758 9.23653Z" fill="#707070"/>
</svg>
