<svg width="18" height="18" viewBox="0 0 18 18" fill="none" xmlns="http://www.w3.org/2000/svg">
<path d="M2.47982 18C2.47982 17.3333 2.47932 16.6667 2.47831 16C2.47831 13.1608 2.47793 10.3215 2.47718 7.48226C2.47718 7.19924 2.47749 6.91623 2.47812 6.63321C2.47812 6.59906 2.47812 6.5649 2.47812 6.51868H0L3.46132 0.0111312L7.05175 6.51566H4.52826C4.52618 6.5583 4.52316 6.59113 4.52316 6.62453C4.52316 9.54554 4.52316 12.4665 4.52316 15.3874C4.52316 16.2582 4.52272 17.1291 4.52183 18H2.47982Z" fill="#707070"/>
<path d="M15.4669 0C15.4677 0.569057 15.4686 1.13805 15.4693 1.70698C15.4693 3.9334 15.4693 6.15931 15.4693 8.38472C15.4693 9.38132 15.4693 10.378 15.4693 11.3747C15.4693 11.4059 15.4693 11.437 15.4693 11.4809H18L14.4082 17.9889L10.9488 11.4828H13.4252V11.3655C13.4252 9.03264 13.4252 6.69981 13.4252 4.36698C13.4252 2.95528 13.4252 1.54365 13.4252 0.132076C13.4252 0.0881132 13.4267 0.044151 13.4275 0H15.4669Z" fill="#707070"/>
</svg>
