<svg width="20" height="20" viewBox="0 0 20 20" fill="none" xmlns="http://www.w3.org/2000/svg">
<path d="M9.57412 1.53849C10.19 1.49287 10.9718 1.56121 11.5442 1.67418C12.5945 1.8816 13.6987 2.29582 14.5792 2.89064C14.7968 3.03759 15.0064 3.17892 15.1998 3.33312C15.2513 3.37418 15.2971 3.41031 15.3458 3.45047C15.3944 3.49064 15.4387 3.53151 15.4889 3.57105C15.6735 3.71702 15.8705 3.92069 16.0366 4.08652C16.1311 4.18088 16.2061 4.25647 16.2922 4.35772L16.4204 4.50235C16.8975 5.07838 17.221 5.53097 17.5823 6.25718C18.1247 7.34788 18.3729 8.38276 18.4535 9.63008C18.5352 10.8933 18.2509 12.227 17.8319 13.2467C17.7281 13.4994 17.6151 13.7387 17.4936 13.9712C17.271 14.397 16.9471 14.8997 16.6578 15.2623C16.4729 15.494 16.3566 15.6177 16.1715 15.8297C16.0863 15.9274 15.9944 16.0034 15.9065 16.1011L15.559 16.4217C15.5332 16.4429 15.5143 16.4621 15.4886 16.4829C14.9103 16.9563 14.4707 17.2849 13.7346 17.6457C12.625 18.1895 11.6264 18.4344 10.3615 18.5163C8.81699 18.6163 7.28323 18.2072 6.02084 17.557C5.90662 17.4981 5.78292 17.4301 5.6763 17.3646C5.31746 17.1441 5.06094 16.9822 4.73 16.7206C4.62714 16.6395 4.53985 16.565 4.44074 16.4828C4.34164 16.4006 4.25748 16.3172 4.1624 16.2344C4.05694 16.1428 3.73397 15.8083 3.63746 15.6962L3.50911 15.5516C3.03327 14.9743 2.70913 14.5283 2.34635 13.7978C1.80451 12.7065 1.55658 11.669 1.47554 10.4235C1.39361 9.16317 1.68037 7.81263 2.09779 6.80646C2.42122 6.02677 2.86566 5.27579 3.38836 4.64511C3.63656 4.34564 4.1302 3.81631 4.44047 3.57078C4.49065 3.53106 4.53537 3.48974 4.58358 3.45021C5.0793 3.04291 5.61958 2.69313 6.19409 2.40754C6.68807 2.16483 7.20381 1.96915 7.73447 1.82311C8.02204 1.7441 8.31381 1.68124 8.60841 1.63482C8.93595 1.58321 9.23102 1.5638 9.57412 1.53849ZM9.64076 0.418814C7.67901 0.455218 5.75224 1.19386 4.28243 2.27409C3.904 2.55226 3.62816 2.78697 3.30187 3.09976C3.12567 3.26863 2.87559 3.52632 2.71906 3.71201C2.40601 4.08437 2.22337 4.3045 1.93814 4.73724C1.63153 5.20235 1.32617 5.74797 1.09863 6.30628C0.57566 7.58875 0.330051 8.77614 0.356258 10.3556C0.367975 11.0563 0.495877 11.8263 0.660362 12.4536C0.819309 13.0596 1.03647 13.6487 1.30882 14.2129C1.84995 15.3363 2.73096 16.5008 3.65141 17.2719C4.04827 17.6042 4.18941 17.7249 4.67651 18.0529C5.17108 18.3829 5.69648 18.6643 6.24534 18.8929C7.50791 19.4132 8.73077 19.6615 10.2938 19.6345C11.0061 19.6223 11.7531 19.4936 12.3913 19.3304C14.4021 18.8173 16.2049 17.6116 17.4836 16.012C18.019 15.3425 18.4896 14.5621 18.8304 13.7455C20.1263 10.6393 19.7173 7.02811 17.7163 4.3435C17.5416 4.10915 17.3636 3.88473 17.1804 3.67507C16.8905 3.34332 16.5325 2.99645 16.1975 2.71022C15.8987 2.45258 15.5832 2.21503 15.2529 1.99913C13.5408 0.87418 11.7038 0.37901 9.64067 0.417651L9.64076 0.418814Z" fill="#707070"/>
<path d="M9.79809 7.52077C9.13317 7.57605 8.64285 8.06433 8.47917 8.62623C8.40681 8.87497 8.41325 9.09277 8.41325 9.36791V15.0132C8.41325 15.2793 8.40529 15.558 8.41522 15.8226C8.42979 16.2109 8.5814 16.548 8.81708 16.8285C9.12673 17.197 9.64407 17.3741 10.1415 17.3247C10.636 17.276 10.9644 17.0236 11.1743 16.75C11.4971 16.3296 11.5149 15.9932 11.5149 15.4741V10.6381C11.5149 10.1041 11.5289 9.55109 11.5131 9.01916C11.4982 8.51344 11.2617 8.1561 11.009 7.90888C10.7429 7.6485 10.3199 7.47748 9.79809 7.52077ZM9.85658 2.72462C9.35776 2.76657 8.94606 2.96514 8.6348 3.32391C8.30923 3.69895 8.11952 4.11604 8.15762 4.66371C8.17551 4.92247 8.24626 5.17596 8.35082 5.37408C8.44759 5.55736 8.51065 5.63026 8.62898 5.77355L8.74526 5.89242C9.2871 6.38043 10.069 6.53267 10.8001 6.17668C11.0078 6.0756 11.1778 5.92122 11.3149 5.77891C11.6418 5.43902 11.7988 4.91657 11.7719 4.41872C11.7416 3.85933 11.4678 3.45199 11.1832 3.1909C10.8922 2.92364 10.4293 2.6765 9.85658 2.72462Z" fill="#707070"/>
<path d="M9.59317 1.16836C10.234 1.12087 11.0475 1.19198 11.6431 1.30951C12.736 1.52534 13.8849 1.95638 14.8011 2.57525C15.0275 2.7282 15.2457 2.87525 15.4468 3.03571C15.5005 3.07847 15.5481 3.11621 15.5989 3.1578C15.6497 3.1994 15.6956 3.24215 15.7478 3.28303C15.9399 3.43509 16.1449 3.6468 16.3177 3.8197C16.4161 3.91809 16.4941 3.99653 16.5836 4.1019L16.7168 4.25235C17.2132 4.85163 17.5499 5.32265 17.9258 6.07828C18.4903 7.21317 18.7487 8.29 18.8324 9.58794C18.9174 10.9028 18.6215 12.2902 18.1856 13.3512C18.0775 13.6141 17.96 13.8631 17.8336 14.105C17.602 14.548 17.2649 15.071 16.9639 15.4484C16.7715 15.6899 16.6508 15.8183 16.4579 16.0387C16.3692 16.1403 16.2736 16.2195 16.1821 16.3211L15.8207 16.6547C15.7939 16.6769 15.7742 16.6968 15.7475 16.7185C15.1457 17.2111 14.6883 17.553 13.9228 17.9284C12.7682 18.4942 11.7292 18.7491 10.4129 18.8344C8.80581 18.9384 7.20988 18.5123 5.89606 17.8361C5.77719 17.7749 5.64849 17.704 5.53758 17.636C5.16415 17.4065 4.89726 17.2381 4.5529 16.9658C4.44557 16.8814 4.35506 16.804 4.25193 16.7184C4.1488 16.6328 4.06159 16.5462 3.96231 16.4598C3.85257 16.3645 3.51653 16.0166 3.41609 15.8998L3.28255 15.7496C2.7874 15.1488 2.45011 14.6852 2.07266 13.9249C1.50917 12.7894 1.25086 11.7098 1.16652 10.4138C1.08128 9.10243 1.37966 7.69716 1.81399 6.6502C2.15056 5.83893 2.61298 5.05744 3.15688 4.40127C3.4151 4.08965 3.92877 3.53884 4.25166 3.28321C4.30389 3.24188 4.35005 3.19886 4.40058 3.15798C4.91632 2.73408 5.47845 2.37001 6.0762 2.07274C6.5902 1.82016 7.12684 1.61652 7.67901 1.46452C7.97824 1.38232 8.28184 1.31692 8.58837 1.26863C8.92915 1.21496 9.23612 1.19475 9.59317 1.16836ZM9.66258 0.00333622C7.62132 0.0411716 5.61638 0.809775 4.087 1.93383C3.69345 2.22328 3.40616 2.46747 3.06672 2.79296C2.88337 2.96881 2.62318 3.23687 2.46057 3.43034C2.13482 3.81782 1.94476 4.04689 1.64799 4.49716C1.32894 4.98115 1.01124 5.54886 0.774489 6.1298C0.23023 7.46415 -0.0253071 8.69966 0.00197287 10.3431C0.0141371 11.0723 0.147228 11.8735 0.318421 12.5262C0.483716 13.1566 0.709566 13.7696 0.992818 14.3565C1.55631 15.5255 2.47265 16.7372 3.4304 17.5395C3.84335 17.8853 3.99022 18.0108 4.49709 18.3522C5.0117 18.6956 5.5584 18.9884 6.12951 19.2263C7.44324 19.7677 8.71565 20.0259 10.3423 19.9979C11.0835 19.9852 11.8607 19.8513 12.5247 19.6815C14.6169 19.1475 16.4928 17.893 17.8234 16.2289C18.3806 15.5323 18.8699 14.7202 19.2247 13.8705C20.5731 10.6384 20.1476 6.88088 18.0654 4.08741C17.8837 3.84358 17.6987 3.61004 17.5079 3.39188C17.2063 3.0468 16.8336 2.68625 16.4852 2.38822C16.1743 2.12013 15.8459 1.87296 15.5023 1.64833C13.7205 0.477218 11.8093 -0.0379875 9.66249 0.00217343L9.66258 0.00333622Z" fill="#707070"/>
</svg>
