<svg width="24" height="24" viewBox="0 0 24 24" fill="none" xmlns="http://www.w3.org/2000/svg">
<path d="M2.62104 10.8634C2.62104 10.7925 2.62104 10.7392 2.62104 10.6856C2.62104 9.98195 2.62104 9.27832 2.62104 8.57469C2.62104 7.81446 3.09011 7.25096 3.83571 7.10904C3.8495 7.10634 3.863 7.10065 3.89059 7.09197C3.87769 7.0767 3.8631 7.06294 3.8471 7.05095C2.50107 6.32785 2.15527 4.39781 3.31085 3.21511C3.70854 2.8079 4.10723 2.40159 4.50692 1.99617C4.81674 1.68358 5.15624 1.68777 5.46096 2.00426C5.84885 2.40688 6.23565 2.81069 6.62134 3.2157C7.73103 4.38553 7.4938 6.18413 6.11868 7.02969C6.09528 7.04406 6.07339 7.06173 6.05869 7.07221C6.24494 7.14736 6.43959 7.20006 6.60724 7.29857C7.03763 7.55128 7.28596 7.93992 7.30065 8.43636C7.32255 9.17921 7.31025 9.92297 7.31235 10.6664C7.31235 10.7263 7.31235 10.7838 7.31235 10.8521H9.65651C9.65651 10.7865 9.65651 10.7239 9.65651 10.661C9.65651 9.39868 9.6715 8.13574 9.65111 6.87369C9.63881 6.11018 10.1247 5.46284 10.9318 5.33588C10.9111 5.31606 10.8889 5.29784 10.8655 5.28139C9.51285 4.5044 9.23002 2.67106 10.2956 1.5201C10.7212 1.05989 11.1687 0.616756 11.6105 0.169426C11.8465 -0.0701085 12.2004 -0.0533412 12.4502 0.205057C12.8701 0.638614 13.29 1.07337 13.703 1.51441C14.116 1.95545 14.3328 2.48333 14.3469 3.08546C14.3676 4.02533 13.9744 4.75052 13.1793 5.25654C13.1493 5.2751 13.1194 5.29307 13.0912 5.31193C13.0879 5.31402 13.087 5.32031 13.0807 5.33379C13.1706 5.35714 13.2606 5.37451 13.3461 5.40385C13.9759 5.61913 14.3448 6.13832 14.3463 6.8162C14.3487 8.09871 14.3487 9.38112 14.3463 10.6634C14.3463 10.7233 14.3463 10.7811 14.3463 10.8515H16.689C16.689 10.7958 16.689 10.7386 16.689 10.6814C16.689 9.99772 16.689 9.31405 16.689 8.63038C16.689 7.80698 17.1191 7.27731 17.9237 7.10574C17.9315 7.10395 17.9378 7.09496 17.9339 7.09826C17.7387 6.93597 17.5221 6.79105 17.3488 6.60571C16.4466 5.64099 16.4577 4.18851 17.365 3.23157C17.7635 2.81119 18.1647 2.3934 18.5686 1.97821C18.8796 1.65693 19.2233 1.65634 19.5325 1.97821C19.9224 2.38033 20.3051 2.78664 20.6935 3.18906C21.7996 4.33433 21.5536 6.22126 20.1686 7.00783C20.1471 7.02237 20.1264 7.03806 20.1065 7.05484C20.2106 7.08269 20.3015 7.10095 20.3885 7.13089C21.0138 7.34558 21.3782 7.86776 21.3827 8.56451C21.3869 9.25317 21.3827 9.94183 21.3827 10.6305C21.3827 10.6904 21.3827 10.7503 21.3827 10.8353C21.4541 10.8353 21.5164 10.8329 21.5788 10.8353C21.9276 10.8503 22.286 10.8206 22.6231 10.8916C23.4353 11.062 23.9578 11.7246 23.986 12.601C24.0067 13.2489 24.0058 13.8989 23.9746 14.5472C23.935 15.3682 23.5847 16.0547 22.9602 16.5937C22.9216 16.6234 22.8908 16.662 22.8704 16.7062C22.8501 16.7505 22.8409 16.799 22.8436 16.8476C22.8469 18.6142 22.8436 20.3807 22.8469 22.1473C22.8469 22.8479 22.5704 23.3932 21.9672 23.7597C21.7088 23.9151 21.413 23.9979 21.1113 23.9992C21.0012 24.001 20.8914 23.9992 20.7813 23.9992C14.8482 23.9992 8.91511 23.9992 2.98214 23.9992C2.09228 23.998 1.39138 23.4623 1.20183 22.6276C1.16844 22.4665 1.15275 22.3022 1.15504 22.1377C1.15264 20.3859 1.15294 18.6344 1.15594 16.8832C1.15594 16.7473 1.11785 16.6617 1.01138 16.5694C0.371657 16.017 0.0459469 15.3062 0.0171548 14.4684C-0.00293965 13.8852 -0.00833817 13.3007 0.0171548 12.7174C0.0471466 12.0117 0.315273 11.4183 0.960096 11.0503C1.19073 10.9188 1.44506 10.8673 1.70989 10.8643C2.00651 10.861 2.30493 10.8634 2.62104 10.8634ZM11.9935 12.0072H1.90124C1.48645 12.0072 1.28761 12.1707 1.21353 12.58C1.19434 12.6832 1.1849 12.7879 1.18533 12.8929C1.19073 13.4812 1.16614 14.0726 1.21742 14.6571C1.28281 15.4017 1.90094 16.0023 2.63753 16.1161C3.34024 16.2248 4.10923 15.8125 4.39565 15.1364C4.49402 14.9038 4.51562 14.6364 4.55611 14.3825C4.5939 14.1501 4.70607 13.9819 4.92471 13.8953C5.14335 13.8088 5.34819 13.8471 5.52754 13.998C5.6898 14.1346 5.72609 14.3238 5.73748 14.5238C5.79747 15.6847 6.98154 16.4485 8.05675 16.0041C8.73936 15.7218 9.09596 15.1879 9.12775 14.4472C9.13825 14.1996 9.24322 14.0139 9.46696 13.9082C9.6907 13.8025 9.90754 13.8364 10.0968 13.9936C10.2599 14.1283 10.2959 14.3157 10.3067 14.5175C10.3538 15.3667 11.0247 16.0631 11.8465 16.1233C12.7253 16.1877 13.4886 15.6188 13.6643 14.7625C13.6913 14.6313 13.6892 14.4948 13.7063 14.3615C13.7217 14.2314 13.781 14.1105 13.8744 14.0185C13.9678 13.9265 14.0898 13.869 14.2204 13.8555C14.499 13.8256 14.7563 13.9828 14.8379 14.2481C14.8651 14.3542 14.8802 14.4631 14.8829 14.5726C14.9581 15.6649 16.1104 16.4108 17.1388 16.0311C17.8239 15.7784 18.2431 15.1906 18.2743 14.44C18.2923 14.0091 18.6966 13.7334 19.0841 13.8956C19.3381 14.0022 19.4395 14.21 19.4515 14.4786C19.4815 15.143 19.7859 15.649 20.387 15.9371C21.4793 16.4605 22.7536 15.691 22.8073 14.478C22.8319 13.9202 22.7998 13.36 22.822 12.8013C22.8442 12.2426 22.5955 11.9997 22.0257 12.0015C18.6813 12.0129 15.3375 12.0072 11.9935 12.0072ZM2.33372 19.3112H21.6643V17.2009C21.1287 17.2857 20.6125 17.2608 20.1098 17.0671C19.6072 16.8734 19.2065 16.5524 18.8643 16.1374C18.2644 16.8704 17.5125 17.2656 16.5774 17.2662C15.6369 17.2662 14.8904 16.8506 14.289 16.1401C13.694 16.8656 12.9493 17.2599 12.0202 17.2662C11.091 17.2725 10.3334 16.891 9.74258 16.1706C9.14425 16.9021 8.39295 17.2955 7.45811 17.2952C6.51997 17.2943 5.77017 16.8799 5.17034 16.1664C4.42054 17.0647 3.47101 17.394 2.33402 17.2255L2.33372 19.3112ZM21.6658 20.4981H2.32562C2.32562 20.5613 2.32562 20.6149 2.32562 20.6688C2.32562 21.1578 2.32562 21.6469 2.32562 22.1359C2.32562 22.6033 2.54786 22.8276 3.01123 22.8276H21.0039C21.443 22.8276 21.6718 22.6018 21.6727 22.1671C21.6737 21.663 21.6737 21.1591 21.6727 20.6553C21.6724 20.6047 21.6685 20.5559 21.6658 20.4981ZM13.1679 10.8569C13.1712 10.8119 13.1754 10.7832 13.1754 10.7542C13.1754 9.4417 13.1754 8.12935 13.1754 6.8171C13.1754 6.58146 13.0729 6.48325 12.8335 6.48235C12.2837 6.48076 11.7338 6.48076 11.184 6.48235C10.9225 6.48235 10.8331 6.57218 10.8328 6.83327C10.8328 8.12576 10.8328 9.41815 10.8328 10.7104C10.8328 10.758 10.8388 10.8054 10.8421 10.8569H13.1679ZM6.12618 10.8533C6.13067 10.814 6.13607 10.7901 6.13607 10.7658C6.13607 10.0275 6.13877 9.2891 6.13607 8.55013C6.13607 8.32647 6.0308 8.23185 5.79357 8.23096C5.24892 8.22836 4.70427 8.22836 4.15962 8.23096C3.88429 8.23096 3.79402 8.32617 3.79372 8.60373C3.79372 9.30237 3.79372 10.001 3.79372 10.6997C3.79372 10.7482 3.79792 10.7967 3.80061 10.8536L6.12618 10.8533ZM17.8718 10.8533H20.1962C20.2014 10.8217 20.2049 10.7899 20.2067 10.758C20.2067 10.0251 20.2091 9.29089 20.2067 8.55912C20.2067 8.32647 20.1035 8.23365 19.8567 8.23245C19.3168 8.23006 18.777 8.23006 18.2371 8.23245C17.9531 8.23245 17.8643 8.32527 17.864 8.61331C17.864 9.30637 17.864 9.99952 17.864 10.6928C17.8649 10.7413 17.8691 10.7904 17.8718 10.853V10.8533ZM12.0516 1.46531C11.7613 1.73209 11.4833 1.97611 11.2191 2.23361C10.9222 2.52285 10.8031 2.88245 10.8385 3.29505C10.9144 4.17803 11.9065 4.66788 12.6359 4.18133C13.2144 3.79538 13.3617 2.9597 12.9178 2.39739C12.647 2.05396 12.3228 1.75454 12.0516 1.46531ZM5.02038 3.22918C4.73246 3.48937 4.45743 3.73519 4.18631 3.98521C4.12453 4.0421 4.05884 4.10677 4.02645 4.18133C3.94158 4.37565 3.83511 4.57237 3.80781 4.77747C3.74783 5.23618 3.91758 5.62482 4.29188 5.90268C4.63948 6.16048 5.02608 6.20869 5.42467 6.02784C6.16037 5.69429 6.37511 4.74274 5.84635 4.10557C5.58003 3.784 5.27351 3.49506 5.02038 3.22918ZM19.0391 3.17379C18.7485 3.4762 18.4693 3.76094 18.1976 4.05198C18.0062 4.25321 17.8914 4.51496 17.873 4.79184C17.8365 5.29816 18.0257 5.70447 18.4645 5.96735C18.8829 6.21797 19.3085 6.18863 19.7034 5.90747C20.279 5.49936 20.384 4.65561 19.9188 4.10408C19.6495 3.7855 19.3453 3.49506 19.0394 3.17379H19.0391Z" fill="#696969"/>
</svg>
