<svg width="26" height="26" viewBox="0 0 26 26" fill="none" xmlns="http://www.w3.org/2000/svg">
<path d="M21.4478 25.5804C21.0219 25.9282 20.5534 26.0716 20.027 25.9402C19.3123 25.762 18.8268 25.1168 18.8268 24.3449C18.8255 22.7207 18.8266 21.0965 18.8302 19.4723C18.8302 19.3864 18.8302 19.304 18.8302 19.1906C18.3025 19.3314 17.8344 19.2391 17.4359 18.8901C17.0374 18.5411 16.8805 18.0697 16.924 17.5361L16.1414 17.3884C16.1414 17.4743 16.1414 17.5601 16.1414 17.646C16.1414 19.7424 16.1414 21.8389 16.1414 23.9353C16.1414 24.9292 15.5206 25.686 14.5832 25.8556C14.0452 25.9526 13.5602 25.7869 12.9961 25.3108C12.9407 25.3538 12.8827 25.4035 12.824 25.4503C12.2288 25.9226 11.5766 26.0218 10.9016 25.6908C10.2266 25.3598 9.85417 24.7733 9.85086 23.9834C9.843 21.8729 9.84838 19.762 9.84879 17.6516C9.84879 17.5657 9.84879 17.4798 9.84879 17.3978C9.60586 17.4348 9.37576 17.4597 9.15145 17.5129C9.11007 17.5223 9.07531 17.6464 9.07407 17.7185C9.05999 18.3981 8.75623 18.8867 8.1516 19.131C7.91943 19.2245 7.6438 19.2044 7.38763 19.2293C7.32224 19.2357 7.25478 19.2155 7.16291 19.2044C7.16291 19.3048 7.16291 19.389 7.16291 19.4727C7.16291 21.0684 7.15918 22.6637 7.16705 24.2594C7.17077 24.9742 6.88563 25.5122 6.27023 25.8195C5.6776 26.1153 5.10442 26.0213 4.58421 25.6006C4.57345 25.592 4.56021 25.5877 4.56393 25.6294C4.26596 25.7414 3.97585 25.9088 3.66878 25.9556C2.72065 26.099 1.90743 25.3473 1.90495 24.3513C1.89957 22.7131 1.90495 21.0744 1.90495 19.4358C1.90495 19.3654 1.90495 19.2949 1.90495 19.2263C1.65995 19.2263 1.4253 19.2585 1.20141 19.2202C0.487101 19.0979 0.00124155 18.4818 0.00124155 17.7284C-0.000413849 16.1042 -0.000413849 14.48 0.00124155 12.8558C0.00124155 11.4344 0.921229 10.2332 2.25838 9.90259C2.28983 9.89486 2.32087 9.88584 2.37964 9.86996C1.77873 9.08948 1.55773 8.22829 1.76259 7.26922C1.91157 6.57203 2.27245 6.00835 2.81832 5.57646C3.89432 4.72429 5.41067 4.79427 6.42501 5.7147C7.37687 6.5789 7.85859 8.34678 6.71885 9.86438L7.45674 10.1155C7.42363 7.91189 8.42639 6.54412 10.525 6.02852C9.60835 4.93852 9.31493 3.68838 9.80037 2.29356C10.0723 1.51179 10.5747 0.914627 11.2654 0.493907C12.6675 -0.363847 14.4073 -0.0835102 15.5314 1.17264C16.5138 2.27038 16.9165 4.36711 15.4627 6.0311C17.5414 6.5291 18.5632 7.88699 18.5326 10.1224C18.663 10.0743 18.7809 10.0279 18.9013 9.98759C19.0218 9.94723 19.1472 9.91117 19.2953 9.86567C18.7052 9.11051 18.4945 8.26435 18.6704 7.33276C18.7975 6.65789 19.1331 6.09678 19.6434 5.65846C20.6817 4.76722 22.2068 4.75692 23.2319 5.62927C23.8526 6.15732 24.2172 6.83605 24.2901 7.66719C24.3613 8.48544 24.1295 9.21612 23.6105 9.87125C24.144 9.99617 24.6013 10.2113 24.9899 10.5689C25.6206 11.1489 25.9802 11.8714 25.9889 12.7472C26.0055 14.4069 25.9997 16.067 25.9955 17.7271C25.9931 18.7047 25.1997 19.3877 24.2657 19.2297C24.2185 19.2215 24.1709 19.2181 24.1001 19.2091C24.0964 19.2928 24.0902 19.3671 24.0902 19.4418C24.0902 21.0444 24.0865 22.647 24.0956 24.25C24.0993 24.9442 23.8382 25.4825 23.2459 25.8011C22.638 26.1282 22.0458 26.0432 21.502 25.6096C21.4847 25.5983 21.4666 25.5886 21.4478 25.5804ZM15.1225 17.312H15.1279C15.1279 15.1446 15.1279 12.9771 15.1279 10.8097C15.1259 10.7168 15.1298 10.6239 15.1394 10.5315C15.168 10.3074 15.3112 10.1499 15.5384 10.0971C15.7399 10.0503 15.9175 10.1215 16.0255 10.2928C16.0968 10.4122 16.1355 10.5495 16.1372 10.6899C16.1447 12.3496 16.143 14.0089 16.1422 15.6699C16.1422 15.9627 16.237 16.2039 16.4915 16.3499C16.9711 16.6251 17.5046 16.2765 17.505 15.6858C17.5069 13.733 17.5069 11.7801 17.505 9.82703C17.5042 9.62723 17.4904 9.42772 17.4636 9.22986C17.313 8.10207 16.2879 7.12969 15.1875 7.11381C13.7535 7.0932 12.3186 7.09535 10.8834 7.11081C9.60048 7.12454 8.50709 8.24503 8.49385 9.58189C8.47316 11.6275 8.48226 13.6732 8.49385 15.721C8.49385 15.8897 8.58407 16.0816 8.68546 16.2211C8.84645 16.4422 9.15601 16.4967 9.40018 16.3993C9.68491 16.2851 9.84755 16.0365 9.84755 15.6991C9.84755 14.0608 9.84755 12.4228 9.84755 10.7848C9.84755 10.7131 9.84465 10.6414 9.84962 10.5702C9.86249 10.445 9.91672 10.3284 10.0031 10.24C10.0895 10.1517 10.2027 10.0971 10.3235 10.0855C10.5387 10.0623 10.7829 10.234 10.84 10.4624C10.8639 10.5666 10.8752 10.6734 10.8735 10.7805C10.8751 14.1497 10.8751 17.5191 10.8735 20.8885C10.8735 21.9116 10.876 22.9346 10.8735 23.9572C10.8735 24.2603 10.9836 24.5016 11.2236 24.6686C11.4852 24.8506 11.7674 24.8639 12.0467 24.7162C12.3547 24.5535 12.4846 24.2719 12.4854 23.925C12.4887 22.7659 12.4875 21.6068 12.4883 20.4476C12.4883 19.346 12.4883 18.2442 12.4883 17.142C12.4883 16.8977 12.598 16.7367 12.8074 16.6414C12.994 16.5555 13.2213 16.5882 13.3495 16.7676C13.4381 16.8982 13.4879 17.0528 13.4927 17.2124C13.5043 18.4926 13.5006 19.7732 13.5014 21.0538C13.5014 22.0125 13.5014 22.9711 13.5052 23.9302C13.5052 24.3445 13.7121 24.6424 14.0626 24.769C14.2179 24.8222 14.3851 24.825 14.5421 24.7773C14.699 24.7295 14.8382 24.6333 14.9412 24.5016C15.1018 24.3002 15.1233 24.0633 15.1229 23.8147C15.1215 21.647 15.1214 19.4794 15.1225 17.312ZM2.93254 19.009C2.93254 20.7263 2.93254 22.4435 2.93254 24.1607C2.93254 24.2393 2.93254 24.3183 2.93668 24.3968C2.94483 24.5306 2.99884 24.6568 3.08894 24.7528C3.17904 24.8488 3.29928 24.9082 3.42793 24.9203C3.55657 24.9323 3.68511 24.8962 3.79032 24.8184C3.89552 24.7407 3.97043 24.6265 4.00151 24.4964C4.01645 24.4115 4.02173 24.325 4.01724 24.2388C4.01724 22.479 4.01724 20.7188 4.01724 18.9584C4.01724 18.7381 4.06442 18.5428 4.24568 18.4144C4.41122 18.2981 4.58959 18.2745 4.77293 18.3801C4.96661 18.4917 5.05062 18.6647 5.05062 18.8914C5.05062 20.594 5.05062 22.2969 5.05062 24.0001C5.05062 24.1289 5.04565 24.2577 5.05352 24.3865C5.06046 24.5087 5.10571 24.6251 5.18236 24.7181C5.25902 24.8111 5.36288 24.8756 5.47813 24.9017C5.69457 24.9579 5.95985 24.8588 6.06083 24.6415C6.11842 24.5049 6.14666 24.357 6.1436 24.2079C6.15022 20.7162 6.15367 17.2245 6.15394 13.7329C6.15181 13.6612 6.15499 13.5894 6.16346 13.5182C6.19533 13.307 6.32072 13.1782 6.51027 13.1056C6.69153 13.0365 6.86701 13.0661 6.9804 13.2143C7.07103 13.3323 7.15339 13.4976 7.15463 13.6436C7.1687 14.9813 7.16332 16.319 7.16539 17.6567C7.16539 17.977 7.34417 18.1835 7.61276 18.1839C7.88135 18.1843 8.05848 17.9838 8.06469 17.6597C8.07228 17.5167 8.07118 17.3733 8.06138 17.2304C8.05503 17.1419 8.02316 17.0574 7.96991 16.9879C7.6289 16.6079 7.4704 16.1662 7.4733 15.6454C7.48116 14.3146 7.47123 12.9837 7.47785 11.6529C7.48321 11.5721 7.46667 11.4915 7.4301 11.42C7.39353 11.3485 7.33839 11.2891 7.27092 11.2485C6.93529 11.0175 6.574 10.8818 6.1676 10.8823C5.09159 10.8823 4.01558 10.8823 2.93957 10.8823C1.86356 10.8823 1.02966 11.7177 1.02262 12.8352C1.01186 14.4446 1.01931 16.055 1.02262 17.664C1.02262 17.9838 1.18816 18.177 1.45468 18.1792C1.72906 18.183 1.90288 17.983 1.90371 17.6576C1.90454 17.1258 1.90495 16.592 1.90495 16.0563C1.90495 15.2552 1.90288 14.4537 1.90495 13.6521C1.90495 13.2198 2.28321 12.9532 2.63912 13.137C2.8597 13.2503 2.93212 13.4611 2.93212 13.708C2.9313 15.475 2.93143 17.242 2.93254 19.009ZM19.8399 18.9854H19.8453C19.8453 19.7939 19.8453 20.6025 19.8453 21.411C19.8453 22.3628 19.8503 23.3141 19.8491 24.2659C19.8491 24.5042 19.9103 24.7055 20.1156 24.8334C20.4976 25.0708 20.9379 24.7858 20.9387 24.2985C20.9415 22.524 20.9426 20.7496 20.942 18.9751C20.942 18.5703 21.149 18.311 21.4622 18.317C21.7755 18.323 21.9717 18.5716 21.9721 18.9665C21.9721 20.0112 21.9721 21.0558 21.9721 22.1005C21.9721 22.8376 21.9721 23.5743 21.9721 24.3114C21.9721 24.6042 22.1124 24.8094 22.3512 24.8858C22.7381 25.0103 23.0547 24.7248 23.0547 24.2457C23.0572 20.7254 23.0591 17.2051 23.0605 13.6848C23.0605 13.3375 23.2757 13.0795 23.5696 13.0795C23.8729 13.0795 24.0827 13.3207 24.0832 13.6762C24.0832 14.6851 24.0832 15.6939 24.0832 16.7028C24.0832 17.0462 24.0786 17.3897 24.0869 17.7331C24.0865 17.7924 24.0974 17.8512 24.1189 17.9061C24.1405 17.961 24.1722 18.0109 24.2124 18.0531C24.2526 18.0952 24.3003 18.1287 24.353 18.1517C24.4057 18.1747 24.4622 18.1866 24.5193 18.1869C24.7507 18.1916 24.9357 18.0216 24.9671 17.7713C24.9727 17.7073 24.9744 17.6429 24.9721 17.5786C24.9738 16.5912 24.975 15.6038 24.9758 14.6164C24.9758 13.9939 24.9903 13.3714 24.9613 12.7493C24.9117 11.6795 24.0923 10.89 23.0622 10.8883C21.9796 10.8883 20.8965 10.8883 19.8139 10.8883C19.4302 10.8883 19.0863 11.0132 18.7631 11.2214C18.5839 11.3369 18.5107 11.4811 18.5127 11.7082C18.5227 13.0245 18.5127 14.3412 18.5194 15.6579C18.5194 16.176 18.3621 16.6217 18.0153 16.9964C17.9678 17.0455 17.9371 17.1092 17.9275 17.178C17.9145 17.3638 17.9145 17.5504 17.9275 17.7361C17.9578 18.1083 18.3066 18.3123 18.5988 18.1307C18.7673 18.0264 18.826 17.8593 18.8256 17.6584C18.8231 16.3349 18.8215 15.0113 18.8297 13.6878C18.8307 13.5476 18.8691 13.4104 18.9407 13.2915C18.999 13.2004 19.086 13.1331 19.1867 13.1009C19.2875 13.0686 19.3959 13.0735 19.4936 13.1147C19.7377 13.2095 19.8399 13.3722 19.8404 13.6835C19.8404 15.4508 19.8402 17.2181 19.8399 18.9854ZM12.9833 6.03582C14.3014 6.04183 15.3878 4.92778 15.3923 3.56473C15.3914 2.90627 15.1402 2.27474 14.6934 1.80709C14.2465 1.33944 13.6399 1.07338 13.0052 1.0666C11.7061 1.05887 10.6144 2.1828 10.6049 3.53254C10.5958 4.90074 11.6689 6.02938 12.9833 6.03582ZM21.4482 9.8193C21.6881 9.82209 21.9262 9.77537 22.1486 9.68185C22.371 9.58833 22.5733 9.44989 22.7436 9.27456C22.914 9.09924 23.0491 8.89053 23.141 8.66058C23.2329 8.43062 23.2798 8.18401 23.279 7.93507C23.2775 7.43274 23.0842 6.95148 22.7415 6.59659C22.3988 6.2417 21.9345 6.04208 21.4502 6.0414C20.4645 6.0384 19.6347 6.89487 19.6243 7.9252C19.6144 8.96283 20.4355 9.81715 21.4482 9.8193ZM4.51593 9.8193C4.75551 9.82299 4.99344 9.77759 5.21607 9.68571C5.43871 9.59383 5.64168 9.45727 5.81334 9.28386C5.98501 9.11045 6.12199 8.9036 6.21644 8.67517C6.31089 8.44674 6.36096 8.20122 6.36376 7.95268C6.37825 6.92234 5.54434 6.04656 4.54821 6.04226C4.06767 6.04085 3.60597 6.23596 3.26317 6.58529C2.92037 6.93462 2.72411 7.41003 2.71692 7.90846C2.70782 8.96884 3.50117 9.81114 4.51593 9.8193Z" fill="#696969"/>
</svg>
