<svg width="22" height="21" viewBox="0 0 22 21" fill="none" xmlns="http://www.w3.org/2000/svg">
<path d="M15.2857 3.01394H15.7154C17.5296 3.01394 19.3438 3.01394 21.158 3.01394C21.5681 3.01394 21.8608 3.21049 21.9696 3.55389C22.0018 3.65943 22.0085 3.77056 21.9892 3.87894C21.97 3.98731 21.9252 4.09009 21.8584 4.17956C21.7915 4.26902 21.7042 4.34284 21.6032 4.39545C21.5022 4.44805 21.3899 4.47809 21.275 4.48329C21.0286 4.49058 20.7818 4.4883 20.5355 4.48329C20.408 4.48055 20.3564 4.52479 20.3411 4.65157C20.2046 5.77706 20.0585 6.90119 19.9201 8.02623C19.8026 8.9798 19.6976 9.9352 19.5777 10.8883C19.4278 12.0808 19.2641 13.2716 19.1132 14.4636C19.0082 15.2959 18.9194 16.13 18.8153 16.9623C18.7303 17.6463 18.631 18.3263 18.5422 19.0089C18.4864 19.4372 18.4305 19.8654 18.389 20.295C18.3503 20.6963 18.0147 21.0014 17.6122 21C13.9373 20.9915 10.2624 20.99 6.58752 20.9954C5.87966 20.9954 5.1718 20.9954 4.46394 20.9954C3.94498 20.9954 3.68144 20.7674 3.6189 20.2703C3.48092 19.1759 3.33245 18.0814 3.19543 16.9837C3.06127 15.9043 2.94287 14.8225 2.80776 13.7431C2.6736 12.6714 2.5213 11.5997 2.38715 10.5299C2.28307 9.7122 2.19331 8.89316 2.08971 8.07548C1.97036 7.13149 1.84288 6.18886 1.72114 5.24532C1.69679 5.05789 1.67674 4.86955 1.66671 4.68075C1.65955 4.53984 1.60369 4.47462 1.44853 4.48055C1.24229 4.48876 1.03508 4.48374 0.827881 4.48055C0.371942 4.47736 -0.00379053 4.14081 2.88638e-05 3.74041C0.00384825 3.34001 0.358574 3.0144 0.814514 3.01075C2.02383 3.00619 3.23266 3.01075 4.44293 3.01075C5.15079 3.01075 5.85881 3.01075 6.56699 3.01075C6.61473 3.01075 6.65866 3.00117 6.72693 2.99388C6.72693 2.28748 6.72693 1.59065 6.72693 0.893374C6.72693 0.300528 7.03582 0 7.66507 0C9.90036 0 12.1357 0 14.371 0C14.9649 0 15.2847 0.306456 15.2847 0.87194C15.2857 1.57424 15.2857 2.27288 15.2857 3.01394ZM3.19352 4.49515C3.21548 4.67026 3.23553 4.81802 3.25319 4.96623C3.3525 5.80807 3.44416 6.65037 3.55206 7.4913C3.68669 8.5639 3.8347 9.63467 3.96885 10.7073C4.08916 11.6672 4.19467 12.629 4.31451 13.5894C4.43434 14.5498 4.56563 15.5098 4.68594 16.4706C4.80482 17.4228 4.91702 18.376 5.02873 19.3291C5.04831 19.4974 5.1118 19.5721 5.31232 19.5717C9.10752 19.565 12.9029 19.565 16.6984 19.5717C16.9023 19.5717 16.9648 19.4923 16.9849 19.3318C17.0674 18.6797 17.1515 18.0276 17.2298 17.375C17.3305 16.534 17.4207 15.6922 17.5263 14.8517C17.6599 13.7869 17.8098 12.7239 17.943 11.6595C18.0638 10.6922 18.1655 9.72268 18.2863 8.75589C18.4372 7.54694 18.6005 6.3389 18.7547 5.13132C18.7809 4.92519 18.7914 4.71723 18.8105 4.49606L3.19352 4.49515ZM8.26948 2.99023C8.30636 2.99947 8.34384 3.00632 8.38168 3.01075C10.108 3.01075 11.8346 3.01227 13.5612 3.01531C13.7116 3.01531 13.7522 2.9583 13.7484 2.82514C13.7417 2.48312 13.7484 2.14109 13.7484 1.79952C13.7484 1.47436 13.7484 1.47391 13.419 1.47391H9.02668C8.82759 1.47391 8.62803 1.46524 8.43038 1.47984C8.37452 1.48394 8.27855 1.55463 8.2776 1.59658C8.26519 2.05809 8.26948 2.5196 8.26948 2.99023Z" fill="#707070"/>
<path d="M14.3318 12.1169C14.3318 13.5987 14.3318 15.0805 14.3318 16.5623C14.3318 16.9933 14.0392 17.2591 13.5784 17.2605C13.1516 17.2605 12.8399 16.9773 12.8389 16.5673C12.8338 14.3103 12.831 12.0532 12.8303 9.79611C12.8303 9.08196 12.8351 8.36735 12.8303 7.65275C12.8303 7.34401 12.9807 7.1242 13.26 7.00016C13.5684 6.86335 13.8644 6.91442 14.1194 7.13697C14.3051 7.29978 14.339 7.50773 14.3385 7.73803C14.3337 9.19734 14.3361 10.6567 14.3361 12.116L14.3318 12.1169Z" fill="#707070"/>
<path d="M7.67938 12.0713C7.67938 10.5978 7.67461 9.12392 7.68177 7.65047C7.68464 7.10322 8.23701 6.77898 8.75693 7.00928C9.01235 7.12238 9.17133 7.31984 9.17324 7.5962C9.18184 8.62167 9.18597 9.64714 9.18566 10.6726C9.18566 12.5719 9.18422 14.4709 9.18136 16.3699C9.18785 16.5356 9.1636 16.7011 9.10975 16.8587C8.9818 17.178 8.64044 17.3216 8.2437 17.2573C7.95342 17.2117 7.68559 16.9162 7.6832 16.6056C7.67509 15.4893 7.677 14.3711 7.67556 13.2561C7.67556 12.8608 7.67556 12.4656 7.67556 12.0704L7.67938 12.0713Z" fill="#707070"/>
</svg>
