<svg width="20" height="20" viewBox="0 0 20 20" fill="none" xmlns="http://www.w3.org/2000/svg">
<path d="M10 0C4.48566 0 0 4.48566 0 10C0 15.5143 4.48566 20 10 20C15.5143 20 20 15.5136 20 10C20 4.48645 15.5143 0 10 0ZM10 18.4508C5.34082 18.4508 1.54918 14.66 1.54918 10C1.54918 5.34004 5.34082 1.54918 10 1.54918C14.6592 1.54918 18.4508 5.34004 18.4508 10C18.4508 14.66 14.66 18.4508 10 18.4508Z" fill="#707070"/>
<path d="M13.8729 9.15563H10.7746V6.05727C10.7746 5.62969 10.4283 5.28266 9.99996 5.28266C9.5716 5.28266 9.22535 5.62969 9.22535 6.05727V9.15563H6.12699C5.69863 9.15563 5.35238 9.50266 5.35238 9.93024C5.35238 10.3578 5.69863 10.7048 6.12699 10.7048H9.22535V13.8032C9.22535 14.2308 9.5716 14.5778 9.99996 14.5778C10.4283 14.5778 10.7746 14.2308 10.7746 13.8032V10.7048H13.8729C14.3013 10.7048 14.6475 10.3578 14.6475 9.93024C14.6475 9.50266 14.3013 9.15563 13.8729 9.15563Z" fill="#707070"/>
</svg>
