<svg width="20" height="26" viewBox="0 0 20 26" fill="none" xmlns="http://www.w3.org/2000/svg">
<path d="M5.40732 15.3054L3.31877 12.963C2.90693 12.5019 2.4951 12.0424 2.08326 11.5794C1.62695 11.0635 1.17246 10.5458 0.719808 10.0263C0.502634 9.7772 0.287106 9.52542 0.0809139 9.26913C0.0312736 9.20319 0.00333689 9.12433 0.000743256 9.04282C-0.0110627 8.4618 0.119626 7.89908 0.261023 7.34008C0.609162 5.9626 1.26343 4.72918 2.17441 3.62178C3.33211 2.22769 4.86094 1.16466 6.5967 0.546862C7.33801 0.286594 8.09689 0.108573 8.88679 0.0464905C9.54708 -0.00962745 10.2109 -0.0149503 10.8721 0.0305721C12.8591 0.179675 14.6267 0.879558 16.1851 2.07345C17.6383 3.18535 18.6907 4.58512 19.3644 6.25338C19.6612 6.98801 19.8353 7.75131 19.9556 8.52813C19.9696 8.61939 19.9679 8.71384 19.9866 8.80378C20.0517 9.12003 19.8691 9.33254 19.6752 9.54983C19.2585 10.017 18.8516 10.4933 18.4397 10.9637C18.0798 11.3733 17.7165 11.7805 17.3544 12.1881C16.9412 12.6531 16.5241 13.115 16.1145 13.5828C15.723 14.0301 15.3375 14.4822 14.9531 14.9359C14.8843 15.0226 14.8221 15.114 14.767 15.2094C14.714 15.2948 14.7321 15.3601 14.8384 15.3901C14.8601 15.3962 14.8809 15.4054 14.9029 15.4118C15.256 15.5179 15.3452 15.6331 15.374 15.9915C15.4877 17.403 15.4484 18.8173 15.4536 20.2306C15.4578 21.3478 15.4495 22.465 15.4399 23.5822C15.4347 24.1787 15.4152 24.7761 15.3993 25.3712C15.3959 25.4504 15.3842 25.5291 15.3641 25.606C15.3158 25.8021 15.2082 25.9066 14.9976 25.9207C14.5745 25.9491 14.1503 25.9756 13.7264 25.9782C11.7646 25.9906 9.80271 25.9979 7.84072 26C7.05878 26 6.27575 25.9867 5.49491 25.9735C5.32248 25.9705 5.15089 25.9392 4.97847 25.9239C4.9004 25.9195 4.82535 25.8932 4.76253 25.8482C4.69971 25.8031 4.65186 25.7414 4.62484 25.6705C4.57514 25.5503 4.53203 25.4174 4.53203 25.29C4.52691 22.5048 4.52691 19.7195 4.53203 16.9342C4.53203 16.5571 4.59299 16.1799 4.63582 15.8037C4.65723 15.6142 4.7838 15.5004 4.97023 15.445C5.11327 15.4001 5.25467 15.3534 5.40732 15.3054ZM18.177 7.343C18.1523 7.24483 18.1435 7.18965 18.1248 7.13765C17.8777 6.45527 17.5411 5.81402 17.1433 5.20408C16.8036 4.68328 16.3803 4.2243 15.922 3.80034C15.5706 3.47533 15.2167 3.14131 14.8161 2.87945C13.4518 1.98669 11.9399 1.4956 10.2862 1.43352C9.40762 1.40062 8.54002 1.4566 7.69493 1.72271C6.47727 2.10608 5.3299 2.6152 4.39723 3.48595C3.94523 3.90973 3.51608 4.35568 3.11148 4.82204C2.60684 5.40147 2.29577 6.09392 1.98716 6.78293C1.91276 6.94901 1.86059 7.12438 1.78536 7.33053C1.91441 7.30904 2.00172 7.29604 2.08738 7.27959C2.52667 7.19708 2.96596 7.07795 3.40937 7.03895C4.01999 6.98589 4.62538 7.0745 5.21925 7.23395C5.78237 7.38518 6.28426 7.65367 6.77874 7.94259C6.80294 7.95417 6.82937 7.96079 6.85635 7.96202C6.88333 7.96325 6.91028 7.95908 6.93551 7.94976C7.07608 7.8898 7.21007 7.8171 7.34734 7.74626C8.04664 7.37483 8.77175 7.09255 9.58251 7.04506C10.1838 7.00977 10.7716 7.05248 11.352 7.20822C11.9264 7.3621 12.4368 7.65181 12.9593 7.9142C13.0801 7.97496 13.1652 7.97629 13.2775 7.90518C13.9175 7.50006 14.6086 7.22042 15.3696 7.10263C16.114 6.98722 16.8476 7.00393 17.5754 7.20132C17.7605 7.25173 17.9494 7.28993 18.177 7.343ZM13.985 24.588V16.8604H5.99158V24.5875L13.985 24.588ZM9.55863 15.3078C9.82303 15.3078 10.0742 15.3054 10.3255 15.3091C10.4043 15.3091 10.4188 15.2723 10.4378 15.2091C10.8545 13.8181 11.2793 12.4295 11.6911 11.0377C11.849 10.5033 11.9805 9.96159 12.12 9.42222C12.1727 9.21846 12.1455 9.16381 11.9681 9.05078C11.4097 8.69182 10.8005 8.49947 10.1253 8.48647C9.40213 8.47268 8.72699 8.62258 8.09551 8.96403C7.93847 9.04919 7.85418 9.16619 7.87587 9.33732C7.9014 9.54956 7.91897 9.76765 7.97745 9.97406C8.27123 11.0029 8.57516 12.0291 8.87992 13.0553C9.10122 13.8027 9.32992 14.5501 9.55863 15.3078ZM11.9519 15.3527C12.2655 15.3792 12.5216 15.2781 12.7284 15.0621C13.1718 14.5989 13.6166 14.1367 14.0534 13.6674C14.4197 13.274 14.7758 12.8715 15.1349 12.4735C15.4998 12.0673 15.8655 11.6617 16.2257 11.2531C16.6419 10.7793 17.0568 10.3041 17.4645 9.82336C17.652 9.60236 17.8239 9.36889 17.9963 9.13648C18.0553 9.05689 18.0987 8.97464 17.9584 8.9046C17.1131 8.48011 16.2345 8.36443 15.3051 8.59154C14.7601 8.72419 14.2953 8.9964 13.8522 9.31344C13.7959 9.35342 13.7534 9.40891 13.7302 9.47262C13.2544 11.0381 12.7806 12.6044 12.3089 14.1715C12.1897 14.5642 12.0707 14.9578 11.9519 15.3524V15.3527ZM8.00985 15.3527C8.01113 15.3415 8.01113 15.3303 8.00985 15.3192C7.44353 13.4377 6.87803 11.5555 6.31336 9.67267C6.26032 9.47217 6.1319 9.29794 5.95314 9.18397C5.12755 8.62682 4.23002 8.3509 3.22569 8.52309C2.85299 8.59177 2.48902 8.69905 2.14009 8.84305C1.84687 8.96058 1.86554 8.97862 2.03302 9.21077C2.25266 9.51693 2.49976 9.80691 2.74686 10.095C3.11587 10.5262 3.49311 10.9507 3.86925 11.3759C4.2454 11.8012 4.62978 12.2324 5.01251 12.6584C5.35049 13.0347 5.68682 13.4125 6.03276 13.782C6.44927 14.2269 6.87428 14.6647 7.29765 15.1038C7.48655 15.2999 7.72733 15.3699 8.00985 15.3527Z" fill="#696969"/>
<path d="M9.18853 19.9786C9.20967 19.5509 9.2223 19.1447 9.2536 18.7398C9.2683 18.57 9.30321 18.4024 9.35765 18.2403C9.38181 18.1635 9.4277 18.0947 9.49013 18.0418C9.55257 17.9889 9.62907 17.9539 9.71101 17.9407C9.88087 17.9106 10.0543 17.9043 10.2261 17.9219C10.4663 17.9484 10.6105 18.1158 10.6451 18.3344C10.7 18.6727 10.7307 19.0152 10.7571 19.3569C10.7727 19.5578 10.7598 19.7607 10.7598 19.9775C11.0344 19.9775 11.2713 19.9741 11.508 19.9775C11.768 19.9823 12.0296 19.9815 12.2869 20.0064C12.5801 20.0345 12.881 20.3625 12.9011 20.6466C12.9316 21.0791 12.6699 21.3746 12.2227 21.3812C11.7803 21.3879 11.3378 21.3698 10.8952 21.3627C10.8551 21.3627 10.8153 21.3627 10.7595 21.3627C10.7595 21.7187 10.773 22.0673 10.7549 22.4146C10.7428 22.6422 10.7052 22.8678 10.6426 23.0874C10.5764 23.3191 10.4196 23.4955 10.153 23.5279C9.90594 23.5578 9.65582 23.5634 9.47846 23.3421C9.34102 23.1656 9.26249 22.9527 9.25332 22.7319C9.22751 22.3231 9.22586 21.9127 9.21323 21.5028C9.21323 21.4598 9.21323 21.4168 9.21323 21.3613C9.14267 21.3613 9.08447 21.3613 9.02654 21.3613L7.75094 21.3844C7.47282 21.3895 7.26278 21.2735 7.1428 21.034C7.02007 20.7891 7.05192 20.5466 7.2076 20.3203C7.37233 20.0794 7.60955 19.9754 7.90442 19.9778C8.32916 19.9786 8.75363 19.9786 9.18853 19.9786Z" fill="#696969"/>
</svg>
