<svg width="24" height="23" viewBox="0 0 24 23" fill="none" xmlns="http://www.w3.org/2000/svg">
<path d="M2.99133 18.8949C1.38667 17.6686 1.07333 15.82 1.75066 14.3753C2.07169 13.6791 2.60905 13.0946 3.28947 12.7016C3.9699 12.3086 4.76029 12.1262 5.55288 12.1793C6.52308 12.2331 7.43416 12.6436 8.09613 13.3252C8.78003 14.0136 9.12807 14.8399 9.17216 15.8011C9.42874 15.6303 9.6553 15.4641 9.8978 15.3266C10.4195 15.0351 11.0139 14.8846 11.6179 14.8911C15.4954 14.8911 19.373 14.8911 23.2506 14.8911C23.7365 14.8911 23.9983 15.1679 23.9987 15.6726C23.9987 16.9907 23.9987 18.3088 23.9987 19.6269C23.9987 20.0313 24.0016 20.4357 23.9987 20.8401C23.9955 21.3901 23.7229 21.649 23.1465 21.649C18.5428 21.649 13.9389 21.6481 9.33493 21.6463C9.08752 21.6415 8.84313 21.699 8.62617 21.813C7.08859 22.6128 5.43655 22.9961 3.68976 22.997C3.04199 22.997 2.38905 23.0181 1.74831 22.948C0.7797 22.8402 0.0226337 21.9743 0.000587774 21.0383C-0.0233344 20.0497 0.685419 19.1667 1.67702 18.9996C2.09354 18.929 2.52414 18.9299 2.99133 18.8949ZM22.5798 20.2879V16.2145H22.3969C18.7861 16.2145 15.1757 16.2145 11.5658 16.2145C11.1159 16.2095 10.679 16.3585 10.3336 16.6346C9.493 17.3037 8.6773 18.0016 7.82736 18.659C7.48401 18.9145 7.11211 19.1327 6.7185 19.3096C6.41454 19.4521 6.06744 19.5078 5.7466 19.6201C4.6035 20.0214 3.42756 20.2537 2.20518 20.2587C1.73612 20.2587 1.41293 20.5323 1.40777 20.93C1.40074 21.3371 1.70751 21.6126 2.1836 21.6162C2.73053 21.62 3.27777 21.62 3.82532 21.6162C5.44687 21.6022 6.95537 21.1911 8.3241 20.3647C8.96249 19.9792 9.54929 19.515 10.1577 19.0845C10.4808 18.8558 10.8913 18.8944 11.1427 19.182C11.3861 19.4588 11.3528 19.8471 11.062 20.1081C11.0024 20.1616 10.941 20.2133 10.8509 20.291L22.5798 20.2879ZM2.81496 16.0347C2.85249 16.7986 3.25025 17.5221 4.09362 17.9629C4.78737 18.3255 5.51113 18.4541 6.23302 17.9894C6.49147 17.8232 6.76822 17.6834 7.02573 17.5163C7.14139 17.4405 7.24196 17.3456 7.32265 17.2359C7.5154 16.9807 7.65071 16.6899 7.71999 16.3819C7.78927 16.074 7.79101 15.7556 7.7251 15.447C7.49057 14.2692 6.31229 13.4132 5.10914 13.5296C3.7953 13.6532 2.82012 14.657 2.81496 16.0347Z" fill="#696969"/>
<path d="M16.566 12.5702C16.1593 13.0685 15.7789 13.5305 15.4046 13.9965C15.156 14.3172 14.8008 14.5473 14.3975 14.6489C13.6545 14.8385 12.8416 14.5833 12.3838 14.0126C11.8885 13.3939 11.8275 12.6196 12.2431 11.955C13.2219 10.3829 14.2046 8.81302 15.1912 7.24538C15.2465 7.15551 15.2991 7.06564 15.3629 6.96049C14.2516 6.31073 13.5753 5.38506 13.4158 4.1489C13.2844 3.12887 13.564 2.20724 14.2254 1.39931C15.46 -0.107819 17.7152 -0.44034 19.3996 0.611145C20.9864 1.59972 21.805 3.84648 20.4536 5.84295C21.0784 6.51923 21.5967 7.27684 21.8162 8.15847C22.1999 9.6984 22.7506 11.1871 23.2234 12.6996C23.2521 12.7833 23.2629 12.8715 23.2554 12.9593C23.2478 13.047 23.222 13.1324 23.1794 13.2104C23.1368 13.2884 23.0783 13.3574 23.0074 13.4134C22.9365 13.4694 22.8546 13.5112 22.7665 13.5363C22.6814 13.5648 22.5911 13.5766 22.501 13.5712C22.411 13.5657 22.323 13.543 22.2423 13.5044C22.1615 13.4658 22.0897 13.4122 22.0309 13.3466C21.9722 13.281 21.9277 13.2048 21.9002 13.1225C21.5062 11.9681 21.1159 10.8123 20.7439 9.65121C20.6032 9.21085 20.5479 8.74487 20.3978 8.30855C20.2101 7.75854 19.8818 7.27504 19.4808 6.8504C19.1632 6.9924 18.8625 7.14832 18.5454 7.26291C18.0192 7.45298 17.4666 7.47904 16.9079 7.45388C16.8625 7.45516 16.818 7.466 16.7774 7.48565C16.7369 7.5053 16.7014 7.53327 16.6734 7.56757C15.613 9.25024 14.5578 10.9358 13.5077 12.6241C13.3449 12.8848 13.3947 13.1395 13.6273 13.2982C13.86 13.4568 14.1137 13.4038 14.3178 13.1535C15.2215 12.0451 16.1245 10.9367 17.0266 9.82826C17.2171 9.5937 17.4441 9.44406 17.7673 9.50338C18.2922 9.59954 18.5201 10.141 18.2101 10.5589C18.0562 10.7661 17.8756 10.9552 17.7293 11.1669C17.6713 11.2546 17.6516 11.3606 17.6744 11.4621C17.878 12.0912 18.1027 12.7095 18.3123 13.335C18.361 13.4708 18.3619 13.6181 18.3147 13.7544C18.2676 13.8907 18.1752 14.0084 18.0515 14.0895C17.8287 14.2458 17.4586 14.2584 17.2424 14.0841C17.1265 13.9862 17.0372 13.8629 16.9821 13.7246C16.8348 13.3624 16.7152 12.9917 16.566 12.5702ZM19.7659 3.7292C19.7514 2.39597 18.6402 1.32831 17.2799 1.34763C15.8751 1.36696 14.8047 2.4427 14.8197 3.81907C14.8333 5.06512 15.9923 6.11346 17.3385 6.09908C18.6665 6.0856 19.7796 4.99772 19.7659 3.7292Z" fill="#696969"/>
</svg>
