<svg width="31" height="28" viewBox="0 0 31 28" fill="none" xmlns="http://www.w3.org/2000/svg">
<path d="M20.0517 23.9558L16.6907 21.6239C16.4553 21.4656 16.2337 21.2929 16.0276 21.1074C15.9449 21.0288 15.8401 20.9695 15.7232 20.9348C15.6062 20.9002 15.4808 20.8915 15.3588 20.9094C13.5479 21.0473 11.7229 20.8833 9.98568 20.4266C8.62742 20.0755 7.34497 19.5391 6.18826 18.8383C5.77451 18.5873 5.65549 18.2831 5.8652 18.0272C6.0749 17.7714 6.47165 17.7327 6.91374 18.0031C8.18018 18.7741 9.61039 19.3283 11.1249 19.6349C12.255 19.864 13.4154 19.9663 14.5766 19.939C14.1855 19.5866 13.8284 19.268 13.477 18.9445C12.0178 17.5932 10.6676 16.1593 9.43591 14.6526C9.38156 14.5862 9.31173 14.5301 9.2308 14.4878C9.14986 14.4454 9.05954 14.4177 8.96548 14.4064C6.95528 14.1201 5.04356 13.4608 3.3657 12.4753C3.19037 12.3741 3.04645 12.2383 2.94628 12.0794C2.89434 11.9747 2.88747 11.8577 2.92687 11.749C2.96627 11.6404 3.04942 11.5471 3.16166 11.4856C3.26416 11.4209 3.38834 11.386 3.51589 11.386C3.64345 11.386 3.76763 11.4209 3.87013 11.4856C5.14559 12.2865 6.5969 12.8611 8.13798 13.1753C8.16806 13.1789 8.19858 13.1789 8.22867 13.1753L7.53153 12.2097C5.97918 10.044 4.61343 7.78505 3.44505 5.45083C3.39896 5.38721 3.36963 5.31582 3.35908 5.24161C3.34854 5.16739 3.35703 5.09211 3.38398 5.02096C3.41092 4.94981 3.45568 4.88449 3.51515 4.82951C3.57462 4.77454 3.64739 4.73121 3.72844 4.70252C4.0685 4.58183 4.36323 4.70252 4.55027 5.05978C5.27574 6.3665 6.00689 7.67 6.7437 8.97029C6.78905 9.05236 6.84572 9.12478 6.89673 9.20202H6.99309C6.99309 8.97029 6.99309 8.71924 6.99309 8.50682C6.99309 8.2944 6.99309 7.99508 6.99309 7.7392C6.98342 7.67111 6.9909 7.60205 7.01502 7.53662C7.03915 7.47118 7.07936 7.41088 7.13299 7.35972C7.18661 7.30856 7.25242 7.26772 7.32603 7.23992C7.39963 7.21212 7.47935 7.19799 7.55987 7.19849C7.63711 7.19454 7.71448 7.20409 7.78722 7.22658C7.85996 7.24906 7.92652 7.284 7.98281 7.32923C8.0391 7.37446 8.08391 7.42903 8.1145 7.48957C8.14508 7.55012 8.16079 7.61536 8.16065 7.68127C8.25868 8.47994 8.2205 9.2865 8.0473 10.0759C8.01329 10.2545 7.94528 10.4283 7.91694 10.6069C7.91392 10.6872 7.93961 10.7663 7.99062 10.8338C9.33065 12.7987 10.8466 14.6726 12.5249 16.4389C12.5767 16.4819 12.6316 16.5222 12.6892 16.5596C12.8479 15.9851 13.018 15.454 13.1313 14.9133C13.3081 14.0075 13.3708 13.0882 13.3183 12.1711C13.253 11.1243 13.0631 10.0858 12.7516 9.07167C12.7113 8.98783 12.6996 8.89603 12.7177 8.80678C12.7358 8.71752 12.783 8.63441 12.854 8.56693C12.9249 8.49946 13.0167 8.45034 13.1189 8.4252C13.221 8.40005 13.3294 8.3999 13.4317 8.42475C13.5534 8.43942 13.6662 8.48737 13.7531 8.56139C13.8399 8.6354 13.8962 8.73147 13.9135 8.83511C14.0665 9.47238 14.2535 10.1048 14.3386 10.7662C14.4398 11.5454 14.4909 12.3286 14.4916 13.1125C14.5026 14.5262 14.2047 15.9292 13.6131 17.25C13.5748 17.3097 13.5607 17.3784 13.573 17.4457C13.5853 17.5129 13.6233 17.5748 13.6811 17.6217C15.8667 19.7493 18.353 21.6385 21.0832 23.2461C22.0014 23.782 22.9593 24.2744 23.9171 24.7813C24.0191 24.8392 24.1325 24.8779 24.2572 24.9358C24.0475 24.2985 23.8094 23.6902 23.6904 23.0626C23.5997 22.6619 23.3787 22.5557 22.9423 22.4591C21.8208 22.2463 20.793 21.7675 19.9776 21.0781C19.1622 20.3887 18.5925 19.5167 18.3343 18.5631C17.8247 16.8327 18.0433 15.0048 18.9521 13.3974C19.9966 11.4139 21.5453 9.65274 23.4864 8.24129C24.4782 7.49299 25.5778 6.85089 26.6377 6.17017C26.7843 6.07771 26.9558 6.01797 27.1364 5.99637C27.2096 5.98829 27.2839 5.99322 27.3546 6.01087C27.4254 6.02851 27.4911 6.05847 27.5476 6.09886C27.604 6.13925 27.6501 6.18918 27.6827 6.2455C27.7153 6.30182 27.7339 6.3633 27.7372 6.42604C28.0364 7.5785 28.4949 8.6967 29.1032 9.75722C29.8846 11.1936 30.4556 12.7064 30.8035 14.2616C31.2942 16.2745 30.8579 18.371 29.5849 20.1177C29.1002 20.8191 28.4242 21.4108 27.6143 21.8428C26.8043 22.2747 25.8842 22.5341 24.9317 22.5992L24.739 22.6281C24.8977 23.1109 25.0337 23.5937 25.2151 24.0765C25.3964 24.5592 25.6118 25.042 25.8385 25.5248C25.9152 25.6624 26.0453 25.7733 26.2069 25.8386C27.2101 26.2297 28.2246 26.6014 29.2392 26.9731C29.6303 27.118 29.7776 27.3304 29.6643 27.6249C29.6444 27.6988 29.6044 27.7677 29.5475 27.8259C29.4906 27.8842 29.4184 27.9303 29.3367 27.9603C29.255 27.9904 29.1662 28.0037 29.0774 27.9991C28.9885 27.9945 28.9022 27.9722 28.8254 27.9339C27.4085 27.398 25.9915 26.8814 24.6029 26.2876C23.5034 25.8048 22.4662 25.2448 21.412 24.6992C21.3471 24.6484 21.2621 24.6201 21.1739 24.6201C21.0857 24.6201 21.0007 24.6484 20.9359 24.6992C19.6739 25.5323 18.204 26.1071 16.6397 26.3793C14.318 26.8045 11.8967 26.5688 9.74764 25.7083C7.24229 24.6941 5.14151 23.0759 3.70577 21.0543C2.208 18.9778 1.18134 16.6801 0.679163 14.2809C0.111946 11.8552 -0.101267 9.37906 0.0443696 6.90882C0.129387 5.46048 0.384437 3.9687 0.611149 2.50587C0.707502 1.86378 0.877535 1.22651 1.03057 0.574757C1.1836 -0.0769955 1.59735 -0.134929 2.16413 0.203017C3.80341 1.13323 5.56725 1.89336 7.41817 2.46725C10.0276 3.29273 12.572 4.26028 15.0357 5.36393C17.0262 6.26549 18.8563 7.40335 20.4711 8.74338C20.5641 8.80434 20.6366 8.88505 20.6813 8.97741C20.7261 9.06978 20.7416 9.17055 20.7262 9.26961C20.7107 9.36426 20.6625 9.45287 20.5879 9.5242C20.5132 9.59554 20.4154 9.64639 20.3067 9.67032C20.1889 9.69431 20.0657 9.69083 19.95 9.66025C19.8343 9.62966 19.7304 9.57311 19.6493 9.49652C18.9635 8.98477 18.2947 8.45372 17.5805 7.97576C16.1648 7.03237 14.6193 6.23959 12.9783 5.61497C10.8132 4.78942 8.61408 4.0218 6.42631 3.24453C4.97206 2.75803 3.56736 2.17027 2.22647 1.48721C2.16392 1.45994 2.09958 1.43576 2.03377 1.41479C1.90341 2.01344 1.77305 2.59277 1.66536 3.17211C1.29606 5.17399 1.14239 7.20044 1.20627 9.22616C1.24714 12.0362 1.83512 14.8211 2.94628 17.4672C3.76842 19.4363 5.08794 21.2278 6.81172 22.715C8.43161 24.1493 10.546 25.1064 12.8479 25.4476C14.0915 25.6253 15.3643 25.5887 16.591 25.3399C17.8176 25.0912 18.9732 24.6353 19.9893 23.9992C20.012 23.9868 20.0329 23.9722 20.0517 23.9558V23.9558ZM23.237 21.4888C23.237 21.3632 23.237 21.257 23.237 21.1508C23.1633 20.4701 23.0556 19.7894 23.0273 19.1038C22.9678 17.4852 23.1199 15.866 23.4807 14.276C23.8863 12.4451 24.5053 10.6532 25.3284 8.92684C25.3456 8.85449 25.382 8.78645 25.4349 8.72796C25.4877 8.66947 25.5556 8.62209 25.6334 8.58945C25.7111 8.55681 25.7966 8.53979 25.8832 8.53969C25.9699 8.5396 26.0554 8.55643 26.1332 8.58889C26.2108 8.6184 26.2805 8.66098 26.3382 8.71405C26.3959 8.76713 26.4404 8.82961 26.469 8.89773C26.4976 8.96584 26.5097 9.03819 26.5046 9.1104C26.4995 9.18261 26.4773 9.25319 26.4393 9.31789C26.0822 10.1821 25.7025 11.0366 25.3851 11.9056C24.7476 13.6465 24.3668 15.4483 24.2515 17.2693C24.1553 18.6318 24.2275 19.9991 24.4669 21.3488C24.5066 21.5563 24.6029 21.5853 24.807 21.5708C25.7816 21.5123 26.708 21.1872 27.4482 20.6439C28.1541 20.0993 28.7222 19.4378 29.1179 18.6999C29.5135 17.962 29.7284 17.163 29.7493 16.352C29.83 15.0947 29.6022 13.8369 29.0805 12.6587C28.5477 11.4035 27.9469 10.1724 27.3518 8.93167C27.1138 8.41509 26.9041 7.88886 26.6717 7.34815C26.3996 7.51712 26.1049 7.67161 25.8668 7.83093C23.4333 9.32204 21.4627 11.2955 20.1254 13.5808C19.3256 14.9205 19.0457 16.442 19.3262 17.9258C19.4968 18.7807 19.9584 19.5741 20.6536 20.2074C21.3488 20.8408 22.2471 21.2864 23.237 21.4888V21.4888Z" fill="#757575"/>
</svg>
