<svg width="25" height="26" viewBox="0 0 25 26" fill="none" xmlns="http://www.w3.org/2000/svg">
<path d="M20.6022 13.6461C20.3504 13.9403 19.9294 14.7557 19.8307 15.1365C20.2495 15.4483 20.6167 15.828 20.9179 16.2611C21.3317 16.8588 21.6433 17.505 21.7884 18.231C21.9857 19.2191 21.464 20.0288 20.5045 20.2184C20.0402 20.3098 19.583 20.3107 19.1324 20.156C18.526 19.9479 18.1749 19.454 18.1775 18.7915C18.1839 17.7593 18.3469 16.7481 18.5915 15.7495C18.6031 15.7024 18.613 15.655 18.6255 15.5996C17.8952 15.2916 17.1855 15.3722 16.4714 15.6499C16.5242 15.9045 16.5858 16.1537 16.6267 16.4062C16.7862 17.3896 16.7137 18.336 16.1758 19.1994C15.8566 19.7136 15.4214 20.0774 14.8742 20.323C13.5665 20.9102 12.269 21.5225 10.9656 22.1184C8.27917 23.3497 5.58952 24.5736 2.90538 25.8103C1.71579 26.3588 0.439147 25.6555 0.0947437 24.5028C-0.054686 24.0175 -0.0266042 23.4924 0.173663 23.0271C1.49615 19.8607 2.8194 16.6938 4.14344 13.5265C4.62856 12.3653 5.11949 11.2066 5.59561 10.0412C6.0349 8.96644 6.80494 8.34299 7.91823 8.16666C7.94173 8.16306 7.96523 8.15826 7.98845 8.15316C7.99251 8.15316 7.9957 8.14686 8.00672 8.13697C7.92113 7.59178 7.69395 7.11287 7.34113 6.69093C7.1595 6.88975 6.99005 7.09277 6.80262 7.2763C6.46199 7.60947 6.07726 7.86797 5.60896 7.97383C4.79655 8.15766 4.02767 7.65805 3.89072 6.81898C3.78714 6.18323 4.05088 5.67073 4.53716 5.29677C5.24512 4.75249 6.02184 4.75699 6.82061 5.05357C6.85659 5.06676 6.89112 5.08356 6.95408 5.11145C6.98309 4.86824 7.02139 4.63883 7.03125 4.40792C7.07129 3.47828 6.87487 2.58613 6.61722 1.70478C6.53801 1.43488 6.44313 1.16739 6.36044 0.896892C6.32619 0.791928 6.32727 0.67808 6.36351 0.573831C6.39974 0.469582 6.46901 0.381053 6.56006 0.322616C6.74604 0.200563 6.99093 0.211659 7.14906 0.368498C7.2163 0.439111 7.26762 0.524206 7.29935 0.617701C7.62809 1.54584 7.88515 2.49347 7.98583 3.47948C8.05866 4.19411 8.03255 4.90333 7.8277 5.59696C7.80507 5.67373 7.80885 5.73041 7.8721 5.79428C8.46838 6.38656 8.85889 7.16565 8.98306 8.01072C9.0025 8.13547 9.05212 8.17925 9.17804 8.20834C9.59498 8.3049 10.0061 8.42875 10.4439 8.54901C10.8966 7.83289 11.5651 7.40765 12.4329 7.35877C13.0538 7.32368 13.61 7.5288 14.0998 7.92675C15.0062 8.66326 15.4902 10.3558 14.3304 11.6918C15.0726 12.5922 15.6775 13.6043 16.1241 14.6933C16.5831 14.5269 17.0459 14.4066 17.531 14.3934C18.0102 14.376 18.488 14.4564 18.9371 14.63C19.0633 14.3616 19.1669 14.0902 19.3111 13.847C19.5313 13.4731 19.7753 13.1141 20.0188 12.7552C20.0695 12.6799 20.0768 12.6292 20.044 12.5452C19.7591 11.8015 19.5737 11.0368 19.6271 10.2281C19.6677 9.61209 19.8261 9.02132 20.0141 8.43955C20.091 8.20144 20.3661 8.08539 20.5999 8.15886C20.8503 8.23743 21 8.47703 20.9414 8.73673C20.857 9.10949 20.7522 9.47715 20.6675 9.8496C20.5071 10.5546 20.6385 11.2315 20.8654 11.9137C20.9742 11.8408 21.0726 11.7712 21.1741 11.7071C21.8235 11.298 22.5166 11.0368 23.2881 11.0365C24.1107 11.0365 24.7635 11.5601 24.9341 12.392C25.112 13.2593 24.9318 14.0462 24.3686 14.7248C23.8536 15.3453 23.0064 15.5045 22.2242 15.1374C21.5858 14.8376 21.0995 14.355 20.6939 13.776C20.6655 13.734 20.6368 13.6944 20.6022 13.6461ZM8.10886 9.38628C7.44906 9.49034 7.0034 9.82141 6.74865 10.4098C6.5354 10.9019 6.56006 11.4231 6.61287 11.9392C6.69324 12.7258 6.94073 13.4629 7.28223 14.1664C7.72035 15.0691 8.28642 15.8805 8.95347 16.6168C9.73077 17.4744 10.587 18.2322 11.61 18.7621C12.347 19.1457 13.1234 19.3799 13.964 19.2899C14.4932 19.2341 14.9006 18.9748 15.1861 18.512C15.4855 18.0262 15.5485 17.4891 15.4919 16.9307C15.4687 16.7025 15.4223 16.4767 15.3831 16.2278C15.3123 16.2725 15.2697 16.2953 15.2316 16.3241C14.813 16.6449 14.392 16.9628 13.9776 17.2897C13.7513 17.4696 13.5381 17.6646 13.3158 17.8493C13.0936 18.034 12.7935 18.0046 12.6157 17.7851C12.4526 17.5827 12.4706 17.254 12.6699 17.0819C13.4 16.4521 14.1326 15.8224 14.9444 15.3048C14.9795 15.2823 15.0129 15.2568 15.0442 15.2349C14.7021 14.3266 13.9538 13.0709 13.3544 12.4106C13.3213 12.3743 13.2349 12.3629 13.1818 12.3767C12.6453 12.5141 12.1134 12.5033 11.6083 12.27C10.6218 11.8141 10.0975 11.023 10.0772 9.89578C10.0755 9.79382 10.0482 9.74584 9.95476 9.71585C9.75688 9.65378 9.56307 9.57821 9.36577 9.51433C9.27321 9.48434 9.1763 9.46875 9.07301 9.44476C9.03982 10.1304 8.94266 10.8111 8.78286 11.4774C8.71062 11.7844 8.45442 11.9485 8.17356 11.8765C7.91562 11.8108 7.76881 11.5361 7.83003 11.2408C7.88341 10.9829 7.94289 10.7259 7.9809 10.4656C8.03139 10.1171 8.06417 9.76593 8.10886 9.38628ZM5.62231 13.1255C5.59997 13.1669 5.58749 13.1855 5.57879 13.2062C5.27239 13.9367 4.96455 14.6669 4.66425 15.4001C4.64452 15.4484 4.66686 15.5351 4.69877 15.5834C5.15875 16.2814 5.69253 16.9243 6.29022 17.5002C7.82277 18.9648 9.60572 19.9311 11.6501 20.3791C11.7972 20.4115 11.8918 20.3428 12.0226 20.2741C10.4268 19.7116 9.1734 18.6731 8.06243 17.4366C6.94827 16.1972 6.08886 14.7917 5.62231 13.1255ZM10.0189 21.2035C7.59588 20.3374 5.63043 18.88 4.07409 16.8066C3.93047 17.15 3.797 17.4636 3.66992 17.7803C3.66323 17.8015 3.66129 17.8241 3.66426 17.8462C3.66722 17.8683 3.67501 17.8895 3.68704 17.9081C3.92322 18.1851 4.15649 18.4661 4.4066 18.7297C5.54368 19.9293 6.85427 20.8733 8.32211 21.593C8.61226 21.7349 8.86875 21.8146 9.14671 21.602C9.16767 21.5896 9.18984 21.5796 9.21286 21.572L10.0189 21.2035ZM11.2639 9.91197C11.2677 10.6419 11.8456 11.2354 12.5461 11.2288C13.2465 11.2222 13.8294 10.6185 13.8227 9.89938C13.816 9.18026 13.2221 8.57989 12.5266 8.58559C11.8311 8.59129 11.2604 9.19585 11.2639 9.91197ZM3.11081 19.1124C2.97038 19.4498 2.83778 19.7589 2.71592 20.072C2.7017 20.1086 2.73014 20.1824 2.76147 20.2163C3.71079 21.2341 4.78598 22.118 5.95917 22.845C6.10424 22.935 6.2203 22.959 6.37959 22.875C6.67176 22.7212 6.97758 22.5952 7.30312 22.4462C5.72193 21.6061 4.3013 20.4766 3.11023 19.1124H3.11081ZM21.2913 12.8676C21.3938 13.0212 21.4802 13.1648 21.5815 13.2977C21.9006 13.7205 22.2665 14.0827 22.7696 14.2612C23.1407 14.3928 23.4677 14.2852 23.7059 13.9637C23.9763 13.599 24.0605 13.1819 24.0025 12.7366C23.9476 12.3137 23.7349 12.0936 23.3592 12.0468C23.2556 12.0342 23.1477 12.0498 23.0427 12.0624C22.384 12.1422 21.8211 12.4352 21.2905 12.8676H21.2913ZM19.4866 16.1576C19.4039 16.6452 19.3125 17.0873 19.2577 17.5356C19.2058 17.9554 19.1878 18.3795 19.1628 18.8023C19.1503 19.0122 19.2681 19.1379 19.453 19.1964C19.7603 19.2916 20.0878 19.2916 20.3951 19.1964C20.7694 19.0869 20.9017 18.8599 20.8303 18.4634C20.7331 17.9236 20.5013 17.4459 20.2091 16.994C20.0089 16.6802 19.7653 16.3984 19.486 16.1576H19.4866ZM4.83775 23.5755C3.87942 22.9322 2.98603 22.1909 2.17103 21.363C2.03814 21.6806 1.91135 21.976 1.79384 22.275C1.77991 22.31 1.80051 22.3811 1.82952 22.4093C2.42132 22.9897 3.05425 23.5236 3.72301 24.0065C3.73921 24.0182 3.75761 24.0262 3.77701 24.03C3.79641 24.0338 3.81637 24.0334 3.83559 24.0287C4.16288 23.8853 4.48581 23.736 4.83775 23.5755ZM6.56035 6.04558C6.14022 5.85576 5.73488 5.79758 5.33448 5.98561C5.18477 6.05638 5.05246 6.19193 4.94482 6.32597C4.83195 6.46662 4.80236 6.64805 4.92161 6.80998C5.04086 6.97192 5.2074 7.0265 5.39803 6.97642C5.90694 6.84477 6.22871 6.46062 6.56035 6.04558ZM2.50556 24.6347L1.25213 23.5629C1.13056 23.9621 1.23008 24.3232 1.51617 24.5679C1.80225 24.8126 2.13186 24.8396 2.50556 24.6347Z" fill="#696969"/>
<path d="M19.7286 0.604204C19.6665 1.28734 19.6102 1.92789 19.5476 2.56814C19.5374 2.6716 19.5635 2.73007 19.6494 2.78615C20.1717 3.12622 20.6896 3.47588 21.2121 3.81535C21.4129 3.9464 21.5368 4.12093 21.5081 4.37013C21.4791 4.62983 21.3186 4.78247 21.0784 4.85744C20.4981 5.03737 19.9195 5.2254 19.3398 5.40893C19.2545 5.43592 19.1971 5.46111 19.1863 5.58256C19.1283 6.22281 19.0561 6.86156 18.9873 7.50181C18.9583 7.76001 18.808 7.94594 18.5791 8.00652C18.3661 8.06289 18.156 7.97353 18.002 7.75821C17.4968 7.05199 16.9943 6.34426 16.4842 5.64194C16.4332 5.58103 16.3626 5.54129 16.2855 5.53008C15.5824 5.43712 14.8783 5.35285 14.1744 5.26588C14.0069 5.24519 13.8389 5.2263 13.6721 5.20171C13.4455 5.16842 13.3019 5.02358 13.2523 4.80346C13.2027 4.58335 13.2601 4.37583 13.4487 4.23369C13.9543 3.84984 14.461 3.46749 14.9688 3.08664C15.0558 3.02096 15.0941 2.96008 15.066 2.84133C14.9209 2.22777 14.7825 1.61181 14.6467 0.996451C14.5971 0.771238 14.6421 0.567618 14.8266 0.418876C15.0111 0.270134 15.2087 0.260838 15.4115 0.367296C15.9785 0.66398 16.545 0.962864 17.1112 1.26395C17.1904 1.30623 17.2426 1.30743 17.3181 1.25195C17.8361 0.8687 18.3567 0.488849 18.8799 0.112395C19.1802 -0.10292 19.5571 0.00143879 19.6857 0.337308C19.7225 0.432371 19.7196 0.541828 19.7286 0.604204ZM19.7437 4.14012C19.415 3.92211 19.1181 3.70859 18.8057 3.52326C18.5091 3.34723 18.4334 3.09863 18.4772 2.76696C18.5239 2.4134 18.5428 2.05624 18.5756 1.67898C18.5228 1.71227 18.4859 1.73296 18.4517 1.75755C18.1865 1.94948 17.9158 2.13361 17.6599 2.33633C17.4246 2.52226 17.1956 2.54025 16.9345 2.39391C16.6119 2.21128 16.2794 2.04664 15.939 1.86671C15.9389 1.89238 15.9405 1.91802 15.9437 1.94348C16.0052 2.22477 16.0644 2.50636 16.1297 2.78645C16.273 3.40001 16.2533 3.45849 15.7664 3.82675C15.5737 3.97249 15.3828 4.12063 15.1617 4.29037C15.693 4.35484 16.1842 4.41872 16.6763 4.47239C16.8687 4.49339 17.0303 4.55756 17.1475 4.7231C17.3989 5.07716 17.6504 5.43072 17.9019 5.78378C17.9538 5.85665 18.0083 5.92773 18.0788 6.02369C18.1134 5.71361 18.1514 5.44252 18.172 5.16962C18.2059 4.73329 18.3014 4.60194 18.6992 4.47569C19.0378 4.36863 19.3761 4.25828 19.7437 4.14012Z" fill="#696969"/>
<path d="M10.6331 5.10755C10.4581 5.10902 10.2845 5.07459 10.1224 5.00626C9.96027 4.93792 9.8129 4.83704 9.68878 4.70945C9.56465 4.58185 9.46624 4.43008 9.39925 4.26292C9.33225 4.09576 9.29799 3.91653 9.29846 3.73559C9.29846 3.04136 9.8065 2.36572 10.6331 2.35913C11.3686 2.35343 11.9594 2.97689 11.9655 3.72749C11.973 4.4838 11.3713 5.10545 10.6331 5.10755ZM10.6256 4.09155C10.6715 4.09263 10.7171 4.08422 10.7598 4.06682C10.8025 4.04942 10.8415 4.02337 10.8743 3.99021C10.9071 3.95706 10.9332 3.91745 10.9511 3.87373C10.9689 3.83 10.9781 3.78304 10.9781 3.73559C10.9762 3.63996 10.9385 3.54883 10.8729 3.48134C10.8073 3.41384 10.719 3.37524 10.6265 3.37363C10.5369 3.37648 10.4517 3.4145 10.3882 3.47996C10.3248 3.54541 10.2879 3.63339 10.285 3.72599C10.2831 3.77346 10.2905 3.82082 10.3069 3.86522C10.3232 3.90963 10.3481 3.95014 10.38 3.98431C10.4119 4.01849 10.4502 4.04561 10.4926 4.06404C10.535 4.08248 10.5805 4.09183 10.6265 4.09155H10.6256Z" fill="#696969"/>
<path d="M17.2798 9.3338C17.6336 9.33554 17.9723 9.48197 18.222 9.74107C18.4716 10.0002 18.6119 10.3509 18.6121 10.7166C18.6121 11.463 18.0078 12.0897 17.285 12.0927C16.5506 12.0951 15.9376 11.4588 15.9431 10.6998C15.9483 9.95156 16.5544 9.3323 17.2798 9.3338ZM17.6256 10.7073C17.6251 10.6599 17.6156 10.6131 17.5974 10.5696C17.5793 10.5261 17.553 10.4867 17.5201 10.4538C17.4871 10.4209 17.4481 10.3951 17.4055 10.3778C17.3628 10.3606 17.3172 10.3523 17.2714 10.3534C17.2025 10.3547 17.1356 10.377 17.079 10.4175C17.0225 10.4581 16.9788 10.5151 16.9536 10.5813C16.9283 10.6475 16.9226 10.7199 16.9372 10.7895C16.9518 10.859 16.986 10.9225 17.0356 10.972C17.0851 11.0214 17.1476 11.0546 17.2154 11.0673C17.2831 11.08 17.353 11.0716 17.4161 11.0433C17.4793 11.015 17.5329 10.9679 17.5702 10.9081C17.6075 10.8483 17.6268 10.7784 17.6256 10.7073Z" fill="#696969"/>
</svg>
