<svg width="24" height="20" viewBox="0 0 24 20" fill="none" xmlns="http://www.w3.org/2000/svg">
<path d="M0.000734671 12.9503V12.7635C0.0188566 12.724 0.0355091 12.6835 0.0551004 12.6453C0.167505 12.4238 0.333296 12.3251 0.54831 12.3667C0.640441 12.3835 0.730118 12.4136 0.814995 12.4561C1.32731 12.7195 1.84011 12.982 2.34752 13.2566C4.18044 14.2475 6.01198 15.2415 7.84213 16.2388C7.87311 16.2581 7.90792 16.2689 7.94359 16.2703C7.97925 16.2717 8.01468 16.2636 8.04685 16.2468C9.64207 15.5242 11.2382 14.8037 12.8352 14.0854C12.9192 14.0478 12.953 14.0054 12.9537 13.9026C12.9562 13.4848 12.9672 13.0669 12.975 12.6485C12.975 12.6103 12.975 12.5719 12.975 12.5151C12.9079 12.5418 12.8553 12.5631 12.8036 12.5866C12.4316 12.7568 12.0613 12.9311 11.6881 13.0976C10.4891 13.6327 9.28976 14.1663 8.08996 14.6986C7.96114 14.7562 7.84507 14.7626 7.71895 14.6863C7.59283 14.61 7.45202 14.5529 7.32076 14.4827C5.50008 13.4967 3.68005 12.5081 1.86068 11.5169C1.31457 11.218 0.78316 10.8879 0.240482 10.5808C-0.069304 10.4055 -0.0435905 9.91371 0.246605 9.72133C0.415089 9.61032 0.585043 9.63567 0.74912 9.71786C1.07123 9.87938 1.39081 10.0468 1.70787 10.22C3.74862 11.3338 5.78897 12.4494 7.8289 13.5669C7.85812 13.5853 7.89102 13.5955 7.92472 13.5967C7.95841 13.5979 7.99186 13.5901 8.02212 13.5739C8.43843 13.3807 8.85671 13.1936 9.27351 13.0029C10.4607 12.4598 11.6481 11.9172 12.8354 11.3752C12.9256 11.3341 12.9579 11.277 12.9559 11.1745C12.951 10.7833 12.952 10.3921 12.9498 10.0004C12.9471 9.978 12.9424 9.95592 12.9356 9.93453L12.7799 10.0042C11.2826 10.6711 9.78517 11.3375 8.28758 12.0036C7.8987 12.1759 7.89306 12.1762 7.51299 11.9721C6.14504 11.2377 4.7761 10.5053 3.41377 9.76002C2.43764 9.22635 1.46934 8.67453 0.499577 8.12512C0.309786 8.01839 0.119017 7.90258 0 7.69365V7.4535C0.0719978 7.21735 0.229707 7.08447 0.435905 6.99027C3.77654 5.46487 7.11635 3.93822 10.4554 2.41032C12.1539 1.6365 13.8593 0.882162 15.5569 0.102738C15.8691 -0.0408195 16.1339 -0.0357497 16.4353 0.129421C17.4394 0.6791 18.4603 1.19676 19.4656 1.74671C20.8754 2.51706 22.2772 3.30529 23.6838 4.08258C23.8308 4.16263 23.9532 4.25895 24 4.4396V4.70644C23.902 4.80383 23.8193 4.92657 23.7061 4.99302C23.438 5.15178 23.1608 5.29427 22.8799 5.42502C21.6732 5.98644 20.4651 6.54341 19.2555 7.09594C19.1715 7.13436 19.1377 7.17893 19.1379 7.27899C19.1379 7.62587 19.1301 7.97276 19.1277 8.31964C19.1311 8.38585 19.138 8.45178 19.1485 8.5171C19.2161 8.49282 19.266 8.47841 19.3135 8.45706C20.1609 8.07549 21.0065 7.68965 21.8555 7.31261C22.3533 7.09149 22.8543 6.879 23.3586 6.67514C23.4529 6.63818 23.555 6.63187 23.6525 6.657C23.8506 6.71437 23.9464 6.88701 23.9736 7.09941C24.0027 7.32862 23.9295 7.49966 23.7441 7.59572C23.3354 7.80625 22.9247 8.01359 22.5081 8.20517C21.4394 8.69615 20.3658 9.17885 19.2947 9.66823C19.2264 9.69945 19.1372 9.70291 19.1379 9.83393C19.1401 10.2342 19.1279 10.6344 19.1262 11.0347C19.1262 11.2089 19.1507 11.2241 19.2976 11.1574C19.832 10.9157 20.3653 10.6713 20.9004 10.4306C21.6951 10.0733 22.4898 9.71519 23.2876 9.36697C23.3931 9.32381 23.5072 9.3113 23.6185 9.33068C23.7125 9.3454 23.7989 9.39496 23.8633 9.47103C23.9277 9.54709 23.966 9.64501 23.9718 9.74828C23.989 9.97775 23.9672 10.1789 23.734 10.2897C23.3941 10.4498 23.0613 10.6304 22.72 10.7879C21.5608 11.3231 20.3999 11.8542 19.2371 12.3811C19.1536 12.419 19.1198 12.4612 19.1218 12.5631C19.1272 12.8697 19.1218 13.1768 19.1218 13.4834C19.1218 13.5846 19.1218 13.6854 19.1218 13.8036C19.1867 13.7756 19.2352 13.7556 19.2832 13.7337C19.888 13.457 20.49 13.1734 21.0985 12.9052C21.8391 12.5799 22.5845 12.2677 23.3295 11.9542C23.4114 11.916 23.5 11.8978 23.5891 11.9008C23.7916 11.919 23.9434 12.0951 23.9748 12.319C24.0122 12.5874 23.939 12.7595 23.7269 12.8588C22.4224 13.4704 21.1216 14.0862 19.8124 14.6826C17.0614 15.9367 14.3079 17.1849 11.5517 18.4271C10.3926 18.9508 9.2309 19.468 8.06669 19.9787C7.98798 20.0071 7.90297 20.0071 7.82425 19.9787C7.68121 19.9261 7.54204 19.8617 7.40794 19.7861C5.42922 18.7168 3.451 17.6458 1.47326 16.5731C1.06478 16.3514 0.65998 16.1195 0.258115 15.8849C0.0288971 15.7515 -0.0494679 15.4449 0.0644062 15.1912C0.17828 14.9374 0.411906 14.8406 0.65851 14.9553C0.913441 15.0738 1.16715 15.1954 1.41522 15.3289C3.55785 16.4882 5.69999 17.6493 7.84164 18.8121C7.87435 18.8324 7.91107 18.8437 7.94867 18.8452C7.98628 18.8467 8.02365 18.8383 8.05763 18.8207C9.66313 18.0902 11.2697 17.3625 12.8773 16.6374C12.9508 16.6043 12.9753 16.564 12.9736 16.481C12.9701 16.0987 12.9736 15.7163 12.9716 15.3337C12.9692 15.2978 12.9647 15.2622 12.9581 15.2269L12.6508 15.3646C11.2099 16.005 9.77186 16.6548 8.32677 17.2858C7.8027 17.5145 7.98833 17.5156 7.47234 17.2469C6.39858 16.6878 5.33029 16.1164 4.26746 15.5327C2.95117 14.8059 1.64566 14.0563 0.334275 13.318C0.184402 13.2339 0.0661204 13.1227 0.000734671 12.9503ZM13.984 16.1056C14.0592 16.0773 14.0939 16.0664 14.1272 16.0522C15.4083 15.4777 16.6895 14.9034 17.9708 14.3296C18.0362 14.3002 18.0494 14.258 18.0497 14.1876C18.056 11.875 18.0642 9.56247 18.0741 7.2499C18.0741 7.15971 18.0465 7.11649 17.9762 7.07753C17.7176 6.93584 17.4619 6.78641 17.2058 6.64125C15.2584 5.54083 13.311 4.43996 11.3637 3.33864C11.3207 3.31107 11.2721 3.29549 11.2223 3.29331C11.1725 3.29112 11.123 3.30238 11.0781 3.3261C9.8819 3.88058 8.68496 4.43302 7.48728 4.98341C7.429 5.01009 7.37316 5.04345 7.29137 5.08641C7.51006 5.20995 7.70352 5.32149 7.89894 5.42956C9.78003 6.46843 11.6601 7.50775 13.539 8.54752C13.9666 8.7858 13.9536 8.67694 13.9583 9.28612C13.973 11.1892 13.9766 13.0925 13.9828 14.9964C13.9852 15.3561 13.984 15.7158 13.984 16.1056ZM1.77986 7.58905C1.8499 7.63361 1.8908 7.66296 1.93414 7.68698C3.91302 8.77655 5.89239 9.86479 7.87225 10.9517C7.91893 10.9736 7.97155 10.975 8.01918 10.9557C9.37294 10.3411 10.7259 9.72399 12.078 9.1044C12.116 9.08706 12.1515 9.06224 12.2019 9.03289C12.15 9.00087 12.1157 8.97766 12.0795 8.95845C10.0828 7.87883 8.08555 6.80073 6.08773 5.72414C6.02253 5.69505 5.94962 5.694 5.88374 5.72121C4.73798 6.23389 3.59369 6.75039 2.45086 7.27072C2.23389 7.36944 2.01961 7.47538 1.77986 7.58905ZM22.2211 4.51618C22.1232 4.45908 22.0497 4.41425 21.9762 4.37316C20.0008 3.29337 18.0253 2.21518 16.0499 1.13859C15.9948 1.1087 15.9049 1.11191 15.8461 1.13859C14.8764 1.58242 13.9081 2.02973 12.9415 2.4805C12.7985 2.54694 12.6569 2.61765 12.4919 2.6977C12.5653 2.7436 12.6143 2.77482 12.6645 2.80444C14.1384 3.64461 15.6127 4.48398 17.0872 5.32256C17.5525 5.58646 18.0301 5.82954 18.5015 6.08357C18.5532 6.11359 18.6107 6.12994 18.6692 6.13128C18.7278 6.13263 18.7859 6.11893 18.8387 6.09131C19.8239 5.63182 20.812 5.179 21.7987 4.72325C21.9324 4.66027 22.0639 4.59303 22.2211 4.51618Z" fill="#696969"/>
</svg>
